<?xml version="1.0" encoding="UTF-8"?>
<svg id="Layer_1" data-name="Layer 1" xmlns="http://www.w3.org/2000/svg" xmlns:xlink="http://www.w3.org/1999/xlink" viewBox="0 0 60.52 51.52">
  <defs>
    <style>
      .cls-1 {
        clip-path: url(#clippath);
      }

      .cls-2, .cls-3, .cls-4, .cls-5, .cls-6, .cls-7 {
        stroke-width: 0px;
      }

      .cls-2, .cls-8, .cls-9 {
        fill: none;
      }

      .cls-10 {
        mask: url(#mask);
      }

      .cls-3 {
        fill: url(#linear-gradient);
      }

      .cls-8 {
        stroke: #f47836;
        stroke-miterlimit: 10;
      }

      .cls-11 {
        clip-path: url(#clippath-1);
      }

      .cls-12 {
        clip-path: url(#clippath-4);
      }

      .cls-13 {
        clip-path: url(#clippath-3);
      }

      .cls-14 {
        clip-path: url(#clippath-2);
      }

      .cls-15 {
        clip-path: url(#clippath-5);
      }

      .cls-9 {
        stroke: #5a4b3b;
        stroke-linecap: round;
        stroke-linejoin: round;
        stroke-width: .25px;
      }

      .cls-16 {
        opacity: .8;
      }

      .cls-4 {
        fill: url(#linear-gradient-4);
      }

      .cls-5 {
        fill: url(#linear-gradient-2);
      }

      .cls-6 {
        fill: url(#linear-gradient-3);
      }

      .cls-7 {
        fill: #fff;
      }

      .cls-17 {
        mask: url(#mask-1);
      }
    </style>
    <clipPath id="clippath">
      <rect class="cls-2" width="60.52" height="51.52"/>
    </clipPath>
    <linearGradient id="linear-gradient" x1="-1034.36" y1="489.35" x2="-1033.36" y2="489.35" gradientTransform="translate(-61799.54 -29238.7) rotate(180) scale(59.8 -59.8)" gradientUnits="userSpaceOnUse">
      <stop offset="0" stop-color="#fff"/>
      <stop offset="1" stop-color="#000"/>
    </linearGradient>
    <mask id="mask" x="-25.2" y="-29.6" width="110.91" height="110.72" maskUnits="userSpaceOnUse">
      <rect class="cls-3" x="-9.47" y="-13.3" width="79.46" height="78.13" transform="translate(-9.47 24.78) rotate(-39)"/>
    </mask>
    <clipPath id="clippath-1">
      <rect class="cls-2" width="60.52" height="51.52"/>
    </clipPath>
    <clipPath id="clippath-2">
      <rect class="cls-2" width="60.52" height="51.52"/>
    </clipPath>
    <linearGradient id="linear-gradient-2" x1="-1015.9" y1="473.37" x2="-1014.9" y2="473.37" gradientTransform="translate(60334.41 28139.79) scale(59.39 -59.39)" xlink:href="#linear-gradient"/>
    <mask id="mask-1" x="-24.5" y="-28.78" width="109.52" height="109.08" maskUnits="userSpaceOnUse">
      <rect class="cls-5" x="-9.36" y="-12.87" width="79.24" height="77.25" transform="translate(-9.36 22.71) rotate(-36)"/>
    </mask>
    <clipPath id="clippath-3">
      <rect class="cls-2" width="60.52" height="51.52"/>
    </clipPath>
    <clipPath id="clippath-4">
      <path class="cls-2" d="M32.33,22.57c.06.7-.39,1.34-1.07,1.52l-.62.17c-.21.06-.35.27-.31.48.03.21.21.36.42.36.32,0,.72,0,1.1,0h.56c.7-.01,1.4.28,1.89.8l1.86,1.99c.07.07.14.07.18.06.03,0,.11-.03.15-.13l1.24-3.28c-1.25-1.9-3.28-3.18-5.51-3.5l.12,1.54Z"/>
    </clipPath>
    <linearGradient id="linear-gradient-3" x1="-926.94" y1="475.5" x2="-925.94" y2="475.5" gradientTransform="translate(6889.12 3542.88) scale(7.4 -7.4)" gradientUnits="userSpaceOnUse">
      <stop offset="0" stop-color="#f36e35"/>
      <stop offset=".12" stop-color="#f36e35"/>
      <stop offset=".49" stop-color="#aa563d"/>
      <stop offset=".77" stop-color="#784543"/>
      <stop offset=".91" stop-color="#653f46"/>
      <stop offset="1" stop-color="#653f46"/>
    </linearGradient>
    <clipPath id="clippath-5">
      <path class="cls-2" d="M27.44,30.87c-.58-.45-.72-1.26-.32-1.89l.19-.29.41-1.5c.09-.34.34-.6.66-.73.33-.12.68-.09.98.1l.83.53.88-.23c.53-.14,1.07.03,1.43.44l1.99,2.3c.45.52.45,1.3-.01,1.81l-.59.65-.17,1.07c-.03.18-.19.31-.37.31-.02,0-.04,0-.06,0-.2-.03-.34-.22-.3-.42l.19-1.17c.01-.07.04-.13.09-.19l.66-.74c.21-.24.22-.59,0-.84l-1.99-2.3c-.17-.2-.44-.28-.69-.21l-1.03.27c-.1.02-.2,0-.29-.05l-.97-.62c-.1-.06-.21-.07-.32-.03-.11.04-.19.13-.22.24l-.42,1.56s-.02.07-.04.1l-.22.34c-.19.3-.12.69.15.91.15.11.35.17.54.13l1.2-.19c.25-.04.51.03.7.19.2.16.32.4.33.66l.08,1.86c.01.2-.15.38-.35.38-.2,0-.37-.15-.39-.35l-.08-1.86c0-.06-.04-.1-.06-.12-.02-.02-.06-.04-.12-.03l-1.2.19c-.08.01-.15.02-.23.02-.31,0-.62-.1-.87-.3M23.08,28.83c0,1.43.38,2.82,1.11,4.04,1.19-.69,2.67-.7,3.89,0l1.01.59c.22.13.46.21.72.24l3.82.36c.57.06,1.08.36,1.41.81l3.15-2.47c.57-1.11.86-2.32.86-3.59s-.29-2.48-.85-3.58l-1.03,2.72c-.12.31-.38.53-.7.59-.06.01-.12.02-.18.02-.26,0-.5-.11-.68-.3l-1.85-1.98c-.35-.37-.83-.58-1.34-.57h-.56c-.39.01-.79.02-1.11.02-.57,0-1.05-.41-1.15-.97-.1-.59.27-1.15.84-1.31l.62-.17c.34-.1.57-.41.54-.76l-.14-1.67c-.13-.01-.27-.02-.4-.02-4.4,0-7.98,3.58-7.98,7.98"/>
    </clipPath>
    <linearGradient id="linear-gradient-4" x1="-979.74" y1="478.75" x2="-978.74" y2="478.75" gradientTransform="translate(15660.06 7668.89) scale(15.96 -15.96)" xlink:href="#linear-gradient-3"/>
  </defs>
  <g class="cls-16">
    <g class="cls-1">
      <g class="cls-10">
        <g class="cls-11">
          <path class="cls-7" d="M30.26,50.52c11.74,0,21.26-9.52,21.26-21.26S42,8,30.26,8,9,17.52,9,29.26s9.52,21.26,21.26,21.26"/>
        </g>
      </g>
    </g>
  </g>
  <g class="cls-16">
    <g class="cls-14">
      <g class="cls-17">
        <g class="cls-13">
          <circle class="cls-8" cx="30.26" cy="29.26" r="20.76"/>
        </g>
      </g>
    </g>
  </g>
  <g class="cls-12">
    <rect class="cls-6" x="30.29" y="21.03" width="7.43" height="6.92"/>
  </g>
  <path class="cls-9" d="M27.09,39.99l4.15.08h.13c1.89,0,3.68-.71,5.06-2.01l3.84-3.62c.19-.18.3-.41.33-.66.03-.31-.08-.62-.3-.84-.38-.39-1-.44-1.43-.1l-.21.16s-.04.04-.07.05l-3.3,2.57c.05.2.06.41.04.63-.05.51-.29.97-.69,1.3-.36.29-.79.44-1.24.44-.07,0-.13,0-.19-.01l-4.15-.4c-.2-.02-.35-.19-.33-.39.02-.2.2-.35.4-.33l4.15.39c.32.03.64-.07.89-.27.25-.2.4-.49.43-.81.02-.19,0-.38-.08-.55,0,0,0-.01,0-.02-.17-.41-.55-.7-1.01-.74l-3.79-.36c-.36-.04-.69-.15-1.01-.33l-1-.58c-1.06-.61-2.38-.55-3.36.15-.01.01-.02.02-.04.03,0,0,0,0-.01,0-.06.04-.12.09-.18.14l-1.49,1.29,4.45,4.78ZM21.77,35.35c-.13-.14-.35-.15-.49-.02l-2.33,2.12,5.45,5.95,2.41-2.11c.07-.07.11-.15.12-.25,0-.09-.03-.18-.1-.25l-.17-.19-.04-.05-4.78-5.12-.08-.08Z"/>
  <g class="cls-15">
    <rect class="cls-4" x="23.08" y="20.85" width="15.96" height="14.04"/>
  </g>
</svg>