<?xml version="1.0" encoding="UTF-8"?>
<svg id="Layer_1" data-name="Layer 1" xmlns="http://www.w3.org/2000/svg" xmlns:xlink="http://www.w3.org/1999/xlink" viewBox="0 0 60.52 51.52">
  <defs>
    <style>
      .cls-1 {
        clip-path: url(#clippath);
      }

      .cls-2, .cls-3, .cls-4, .cls-5, .cls-6, .cls-7, .cls-8 {
        stroke-width: 0px;
      }

      .cls-2, .cls-9, .cls-10 {
        fill: none;
      }

      .cls-11 {
        mask: url(#mask);
      }

      .cls-3 {
        fill: url(#linear-gradient);
      }

      .cls-9 {
        stroke: #f47836;
      }

      .cls-9, .cls-10 {
        stroke-miterlimit: 10;
      }

      .cls-12 {
        clip-path: url(#clippath-1);
      }

      .cls-13 {
        clip-path: url(#clippath-4);
      }

      .cls-14 {
        clip-path: url(#clippath-3);
      }

      .cls-15 {
        clip-path: url(#clippath-2);
      }

      .cls-16 {
        clip-path: url(#clippath-5);
      }

      .cls-17 {
        opacity: .8;
      }

      .cls-4 {
        fill: url(#linear-gradient-4);
      }

      .cls-5 {
        fill: url(#linear-gradient-2);
      }

      .cls-6 {
        fill: url(#linear-gradient-3);
      }

      .cls-7 {
        fill: url(#linear-gradient-5);
      }

      .cls-10 {
        stroke: #5a4b3b;
        stroke-width: .25px;
      }

      .cls-8 {
        fill: #fff;
      }

      .cls-18 {
        mask: url(#mask-1);
      }
    </style>
    <clipPath id="clippath">
      <rect class="cls-2" width="60.52" height="51.52"/>
    </clipPath>
    <linearGradient id="linear-gradient" x1="-776.81" y1="479.85" x2="-775.81" y2="479.85" gradientTransform="translate(-46397.18 -28670.49) rotate(-180) scale(59.8 -59.8)" gradientUnits="userSpaceOnUse">
      <stop offset="0" stop-color="#fff"/>
      <stop offset="1" stop-color="#000"/>
    </linearGradient>
    <mask id="mask" x="-25.2" y="-29.6" width="110.91" height="110.72" maskUnits="userSpaceOnUse">
      <rect class="cls-3" x="-9.47" y="-13.3" width="79.46" height="78.13" transform="translate(-9.47 24.78) rotate(-39)"/>
    </mask>
    <clipPath id="clippath-1">
      <rect class="cls-2" width="60.52" height="51.52"/>
    </clipPath>
    <linearGradient id="linear-gradient-2" x1="-760.62" y1="465.24" x2="-759.62" y2="465.24" gradientTransform="translate(45173.19 27657.17) scale(59.39 -59.39)" gradientUnits="userSpaceOnUse">
      <stop offset="0" stop-color="#fff"/>
      <stop offset="1" stop-color="#000"/>
    </linearGradient>
    <mask id="mask-1" x="-24.5" y="-28.78" width="109.52" height="109.08" maskUnits="userSpaceOnUse">
      <rect class="cls-5" x="-9.36" y="-12.87" width="79.24" height="77.25" transform="translate(-9.36 22.71) rotate(-36)"/>
    </mask>
    <clipPath id="clippath-2">
      <rect class="cls-2" x="8.07" y="7.55" width="43.48" height="43.97"/>
    </clipPath>
    <clipPath id="clippath-3">
      <path class="cls-2" d="M20.77,28.74c.12-.05.2-.08.24-.11l3.47-2.46c.58-1.45,1.57-2.69,2.86-3.59,1.34-.93,2.91-1.42,4.55-1.42,4.4,0,7.99,3.58,7.99,7.98s-3.58,7.98-7.99,7.98c-1.4,0-2.76-.36-3.96-1.05-.05.07-.1.13-.15.19-.23.23-.53.36-.86.36-.62.02-2.35.11-2.55.13-.06,0-.12,0-.18,0-.07,0-.13,0-.2,0h-.24c2.1,2.24,5.04,3.52,8.14,3.52,6.13,0,11.12-4.99,11.12-11.13s-4.99-11.13-11.13-11.13-10.91,4.79-11.12,10.73"/>
    </clipPath>
    <linearGradient id="linear-gradient-3" x1="-739.74" y1="470.43" x2="-738.74" y2="470.43" gradientTransform="translate(16479.06 10495.56) scale(22.25 -22.25)" gradientUnits="userSpaceOnUse">
      <stop offset="0" stop-color="#f36e35"/>
      <stop offset=".12" stop-color="#f36e35"/>
      <stop offset=".49" stop-color="#aa563d"/>
      <stop offset=".77" stop-color="#784543"/>
      <stop offset=".91" stop-color="#653f46"/>
      <stop offset="1" stop-color="#653f46"/>
    </linearGradient>
    <clipPath id="clippath-4">
      <path class="cls-2" d="M25.18,25.67l.12-.08c.21-.15.45-.23.71-.23.4,0,.77.19,1,.52.39.55.26,1.31-.29,1.7l-.79.56h1.98c.45-1.81,2.1-3.1,3.98-3.1,2.26,0,4.1,1.84,4.1,4.1s-1.84,4.1-4.1,4.1c-1.01,0-1.96-.36-2.71-1.02-.17.17-.38.3-.62.35.19.22.31.5.31.82,0,.62-.46,1.13-1.05,1.21.2.21.31.5.31.8,0,.09,0,.18-.03.27,1.15.67,2.46,1.02,3.79,1.02,4.16,0,7.55-3.39,7.55-7.55s-3.39-7.55-7.55-7.55c-2.86,0-5.42,1.58-6.71,4.08"/>
    </clipPath>
    <linearGradient id="linear-gradient-4" x1="-723.38" y1="469.1" x2="-722.38" y2="469.1" gradientTransform="translate(10339.87 6717.97) scale(14.26 -14.26)" gradientUnits="userSpaceOnUse">
      <stop offset="0" stop-color="#f36e35"/>
      <stop offset=".12" stop-color="#f36e35"/>
      <stop offset=".49" stop-color="#aa563d"/>
      <stop offset=".77" stop-color="#784543"/>
      <stop offset=".91" stop-color="#653f46"/>
      <stop offset="1" stop-color="#653f46"/>
    </linearGradient>
    <clipPath id="clippath-5">
      <path class="cls-2" d="M28.36,28.14h2.84c.33,0,.63.13.86.36.23.23.36.54.36.86,0,.67-.55,1.22-1.22,1.22h-1.98c.18.21.29.49.29.79,0,.17-.03.33-.1.48.68.62,1.55.96,2.47.96,2.02,0,3.67-1.64,3.67-3.67s-1.65-3.67-3.67-3.67c-1.64,0-3.09,1.11-3.53,2.66"/>
    </clipPath>
    <linearGradient id="linear-gradient-5" x1="-678.63" y1="465.35" x2="-677.63" y2="465.35" gradientTransform="translate(4909.24 3376.1) scale(7.19 -7.19)" gradientUnits="userSpaceOnUse">
      <stop offset="0" stop-color="#f36e35"/>
      <stop offset=".12" stop-color="#f36e35"/>
      <stop offset=".49" stop-color="#aa563d"/>
      <stop offset=".77" stop-color="#784543"/>
      <stop offset=".91" stop-color="#653f46"/>
      <stop offset="1" stop-color="#653f46"/>
    </linearGradient>
  </defs>
  <g class="cls-17">
    <g class="cls-1">
      <g class="cls-11">
        <g class="cls-12">
          <path class="cls-8" d="M30.26,50.52c11.74,0,21.26-9.52,21.26-21.26S42,8,30.26,8,9,17.52,9,29.26s9.52,21.26,21.26,21.26"/>
        </g>
      </g>
    </g>
  </g>
  <g class="cls-18">
    <g class="cls-15">
      <circle class="cls-9" cx="30.26" cy="29.26" r="20.76"/>
    </g>
  </g>
  <rect class="cls-10" x="17.63" y="29.41" width=".71" height="6.39"/>
  <g class="cls-14">
    <rect class="cls-6" x="20.77" y="18.01" width="22.25" height="22.26"/>
  </g>
  <path class="cls-10" d="M24.38,36.06c.19-.01,1.86-.11,2.46-.12.21,0,.4-.08.54-.22.07-.07.12-.15.16-.24,0,0,0,0,0-.01.03-.09.05-.18.05-.27,0-.4-.34-.73-.74-.75h-1.86c-.12,0-.21-.09-.21-.21s.09-.21.21-.21h2.56c.42,0,.76-.34.76-.75s-.34-.75-.76-.75h-1.72c-.12,0-.21-.09-.21-.21s.09-.21.21-.21h2.34c.27,0,.51-.14.65-.36t0,0c.07-.11.11-.24.11-.39,0-.42-.34-.75-.76-.75h-1.68c-.12,0-.21-.09-.21-.21s.09-.21.21-.21h4.47c.42,0,.76-.34.76-.75,0-.2-.08-.39-.22-.53-.14-.14-.33-.22-.54-.22h-5.64l-.41.29c-.09.07-.23.04-.29-.05-.07-.09-.04-.22.05-.29l.45-.32h.01s1.29-.91,1.29-.91c.34-.24.42-.71.18-1.05-.14-.2-.37-.32-.62-.32-.16,0-.31.05-.44.14l-.75.52-3.38,2.38c-.1.07-.34.16-.63.26-.51.17-1.18.36-1.51.45v5.38l2.04.51s.03,0,.04.02c.31.15.65.24.99.26l.99.06.73.04c.11.02.21.02.31.01Z"/>
  <g class="cls-13">
    <rect class="cls-4" x="25.18" y="21.59" width="14.26" height="15.1"/>
  </g>
  <g class="cls-16">
    <rect class="cls-7" x="28.36" y="25.47" width="7.19" height="7.33"/>
  </g>
</svg>