<?xml version="1.0" encoding="UTF-8"?>
<svg id="Layer_1" data-name="Layer 1" xmlns="http://www.w3.org/2000/svg" xmlns:xlink="http://www.w3.org/1999/xlink" viewBox="0 0 60.52 51.52">
  <defs>
    <style>
      .cls-1 {
        clip-path: url(#clippath);
      }

      .cls-2, .cls-3, .cls-4, .cls-5, .cls-6, .cls-7, .cls-8 {
        stroke-width: 0px;
      }

      .cls-2, .cls-9, .cls-10 {
        fill: none;
      }

      .cls-11 {
        mask: url(#mask);
      }

      .cls-3 {
        fill: url(#linear-gradient);
      }

      .cls-9 {
        stroke: #f47836;
        stroke-miterlimit: 10;
      }

      .cls-12 {
        clip-path: url(#clippath-1);
      }

      .cls-13 {
        clip-path: url(#clippath-4);
      }

      .cls-14 {
        clip-path: url(#clippath-3);
      }

      .cls-15 {
        clip-path: url(#clippath-2);
      }

      .cls-16 {
        clip-path: url(#clippath-6);
      }

      .cls-17 {
        clip-path: url(#clippath-5);
      }

      .cls-10 {
        stroke: #5a4b3b;
        stroke-linecap: round;
        stroke-linejoin: round;
        stroke-width: .25px;
      }

      .cls-18 {
        opacity: .8;
      }

      .cls-4 {
        fill: url(#linear-gradient-4);
      }

      .cls-5 {
        fill: url(#linear-gradient-2);
      }

      .cls-6 {
        fill: url(#linear-gradient-3);
      }

      .cls-7 {
        fill: url(#linear-gradient-5);
      }

      .cls-8 {
        fill: #fff;
      }

      .cls-19 {
        mask: url(#mask-1);
      }
    </style>
    <clipPath id="clippath">
      <rect class="cls-2" width="60.52" height="51.52"/>
    </clipPath>
    <linearGradient id="linear-gradient" x1="-862.33" y1="480.16" x2="-861.33" y2="480.16" gradientTransform="translate(-51511.71 -28688.84) rotate(-180) scale(59.8 -59.8)" gradientUnits="userSpaceOnUse">
      <stop offset="0" stop-color="#fff"/>
      <stop offset="1" stop-color="#000"/>
    </linearGradient>
    <mask id="mask" x="-25.2" y="-29.6" width="110.91" height="110.72" maskUnits="userSpaceOnUse">
      <rect class="cls-3" x="-9.47" y="-13.3" width="79.46" height="78.13" transform="translate(-9.47 24.78) rotate(-39)"/>
    </mask>
    <clipPath id="clippath-1">
      <rect class="cls-2" width="60.52" height="51.52"/>
    </clipPath>
    <clipPath id="clippath-2">
      <rect class="cls-2" width="60.52" height="51.52"/>
    </clipPath>
    <linearGradient id="linear-gradient-2" x1="-842.57" y1="465.6" x2="-841.57" y2="465.6" gradientTransform="translate(50039.81 27678.63) scale(59.39 -59.39)" xlink:href="#linear-gradient"/>
    <mask id="mask-1" x="-24.5" y="-28.78" width="109.52" height="109.08" maskUnits="userSpaceOnUse">
      <rect class="cls-5" x="-9.36" y="-12.87" width="79.24" height="77.25" transform="translate(-9.36 22.71) rotate(-36)"/>
    </mask>
    <clipPath id="clippath-3">
      <rect class="cls-2" width="60.52" height="51.52"/>
    </clipPath>
    <clipPath id="clippath-4">
      <path class="cls-2" d="M26.63,23.49l-3.49,6.05c.38.33.73.69,1.07,1.07v.02c.06-.13.13-.24.22-.36l1.91-2.38c.29-.36.7-.59,1.15-.65.97-.13,1.87.56,2,1.53.49-.05.97.09,1.35.39.57.46.8,1.21.59,1.91.82.12,1.44.8,1.5,1.62.47-.04.94.11,1.31.4.55.44.79,1.17.6,1.85l1.42.83c.38-.01.73-.24.9-.58.17-.29.21-.63.11-.95l-4.48-2.62c-.12-.07-.17-.24-.09-.36.07-.13.24-.17.36-.1l4.74,2.77c.37-.02.7-.24.86-.58.17-.29.21-.64.1-.96l-4.47-2.6c-.1-.07-.14-.21-.09-.33.06-.13.22-.19.35-.13l4.95,2.89c.36-.03.67-.25.83-.57.2-.35.21-.78.03-1.14l-.52.12-6.1-3.44-.62,1.07c-.48.83-1.84,1.26-2.64.66-.84-.56-1.12-1.67-.64-2.56l.94-1.64.21-.31c-1.23-.59-2.98-.53-4.37-.92v.02Z"/>
    </clipPath>
    <linearGradient id="linear-gradient-3" x1="-810.44" y1="473.7" x2="-809.44" y2="473.7" gradientTransform="translate(14092.77 8253.39) scale(17.36 -17.36)" gradientUnits="userSpaceOnUse">
      <stop offset="0" stop-color="#f36e35"/>
      <stop offset=".12" stop-color="#f36e35"/>
      <stop offset=".49" stop-color="#aa563d"/>
      <stop offset=".77" stop-color="#784543"/>
      <stop offset=".91" stop-color="#653f46"/>
      <stop offset="1" stop-color="#653f46"/>
    </linearGradient>
    <clipPath id="clippath-5">
      <path class="cls-2" d="M22.69,21.23h0s-3.51,6.07-3.51,6.07c-.21.36-.08.82.28,1.04l2.16,1.25c.36.21.82.08,1.03-.28l3.51-6.08c.21-.36.08-.82-.27-1.03,0,0,0,0,0,0l-2.16-1.25h0c-.12-.07-.25-.1-.38-.1-.26,0-.52.14-.66.38"/>
    </clipPath>
    <linearGradient id="linear-gradient-4" x1="-750.65" y1="474.96" x2="-749.65" y2="474.96" gradientTransform="translate(5414.44 3439.08) scale(7.19 -7.19)" xlink:href="#linear-gradient-3"/>
    <clipPath id="clippath-6">
      <path class="cls-2" d="M34.62,35.42l-1.26,1.62.84.48c.55.32,1.26.13,1.57-.43,0,0,0,0,0,0,.16-.28.2-.62.1-.93-.15-.09-1.22-.74-1.25-.74h0"/>
    </clipPath>
    <linearGradient id="linear-gradient-5" x1="-567.34" y1="477.82" x2="-566.34" y2="477.82" gradientTransform="translate(1491.38 1264.57) scale(2.57 -2.57)" xlink:href="#linear-gradient-3"/>
  </defs>
  <g class="cls-18">
    <g class="cls-1">
      <g class="cls-11">
        <g class="cls-12">
          <path class="cls-8" d="M30.26,50.52c11.74,0,21.26-9.52,21.26-21.26S42,8,30.26,8,9,17.52,9,29.26s9.52,21.26,21.26,21.26"/>
        </g>
      </g>
    </g>
  </g>
  <g class="cls-18">
    <g class="cls-15">
      <g class="cls-19">
        <g class="cls-14">
          <circle class="cls-9" cx="30.26" cy="29.26" r="20.76"/>
        </g>
      </g>
    </g>
  </g>
  <g class="cls-13">
    <rect class="cls-6" x="23.14" y="23.47" width="17.41" height="12.3"/>
  </g>
  <g class="cls-17">
    <rect class="cls-4" x="18.97" y="20.85" width="7.4" height="8.94"/>
  </g>
  <path class="cls-10" d="M40.6,29.7s-.07-.09-.09-.14l-3.46-5.95c-.03-.06-.06-.11-.08-.17-1.46.25-3.15-.24-4.39.32-.27.08-.52.25-.7.47l-.58.85-.92,1.58c-.34.64-.12,1.43.49,1.82.51.39,1.5.07,1.83-.49l.87-1.5,6.29,3.53c.27-.04.53-.15.75-.32h0ZM39.9,21.12l-2.12,1.22c-.35.2-.48.65-.27,1.01,0,0,0,0,0,0l3.45,5.95c.21.35.66.47,1.01.27l2.13-1.22c.35-.21.47-.66.27-1.01l-3.45-5.95c-.21-.36-.66-.48-1.02-.27ZM32.83,33.15l-2.07,2.56c.01.39.19.76.5,1.01.53.42,1.3.34,1.72-.19l1.14-1.39c.42-.53.34-1.29-.19-1.72-.31-.24-.71-.33-1.1-.26h0ZM31.06,31.53l-2.59,2.98c0,.4.17.79.49,1.04.3.24.7.33,1.08.23l2.41-2.97c.02-.39-.15-.77-.45-1.01-.26-.2-.6-.3-.93-.26h0ZM29.53,29.3l-2.97,3.61c-.02.4.16.79.47,1.04.28.23.65.32,1.01.24l2.95-3.4c.11-.46-.05-.94-.42-1.24-.29-.24-.68-.33-1.05-.26h0ZM28.61,28.04c-.53-.42-1.3-.34-1.72.19l-1.88,2.33c-.42.52-.34,1.29.18,1.71.28.23.66.32,1.01.25l2.86-3.48c.01-.38-.15-.75-.46-1Z"/>
  <g class="cls-16">
    <rect class="cls-7" x="33.36" y="35.41" width="2.61" height="2.42"/>
  </g>
</svg>