<?xml version="1.0" encoding="UTF-8"?>
<svg id="Layer_1" data-name="Layer 1" xmlns="http://www.w3.org/2000/svg" xmlns:xlink="http://www.w3.org/1999/xlink" viewBox="0 0 100.11 96.07">
  <defs>
    <style>
      .cls-1 {
        clip-path: url(#clippath);
      }

      .cls-2 {
        fill: none;
      }

      .cls-2, .cls-3, .cls-4 {
        stroke-width: 0px;
      }

      .cls-3 {
        fill: url(#linear-gradient);
      }

      .cls-5 {
        clip-path: url(#clippath-1);
      }

      .cls-4 {
        fill: #4d4d4f;
      }
    </style>
    <clipPath id="clippath">
      <path class="cls-2" d="M0,57.13v.22c0,1.45.06,2.91.19,4.38,1.63,19.23,15.64,34.34,34.95,34.34s34.94-15.65,34.94-34.94-15.64-34.94-34.94-34.94c-1.64,0-3.24.16-4.82.38C31.39,15.28,37.83,5.58,47.05,0,21.42,7.4.06,29.84,0,57.13"/>
    </clipPath>
    <linearGradient id="linear-gradient" x1="431.86" y1="524.86" x2="432.86" y2="524.86" gradientTransform="translate(-30264.77 -36734.11) scale(70.08)" gradientUnits="userSpaceOnUse">
      <stop offset="0" stop-color="#41bfb5"/>
      <stop offset=".04" stop-color="#41bfb5"/>
      <stop offset=".4" stop-color="#2dada1"/>
      <stop offset="1" stop-color="#058a7a"/>
    </linearGradient>
    <clipPath id="clippath-1">
      <rect class="cls-2" y="0" width="100.11" height="96.07"/>
    </clipPath>
  </defs>
  <g class="cls-1">
    <rect class="cls-3" width="70.08" height="96.07"/>
  </g>
  <g class="cls-5">
    <path class="cls-4" d="M100.11,81.1c0,8.27-6.7,14.97-14.97,14.97s-14.27-6.47-14.97-14.71c-1.07-12.57,8.48-23.1,20.08-26.45-3.95,2.39-6.71,6.55-7.17,11.38.68-.1,1.36-.16,2.06-.16,8.27,0,14.97,6.7,14.97,14.97"/>
  </g>
</svg>