<?xml version="1.0" encoding="UTF-8"?>
<svg id="Layer_1" data-name="Layer 1" xmlns="http://www.w3.org/2000/svg" xmlns:xlink="http://www.w3.org/1999/xlink" viewBox="0 0 42.52 49.37">
  <defs>
    <style>
      .cls-1 {
        clip-path: url(#clippath);
      }

      .cls-2 {
        fill: none;
      }

      .cls-2, .cls-3, .cls-4, .cls-5, .cls-6, .cls-7 {
        stroke-width: 0px;
      }

      .cls-3 {
        fill: #6d3d1f;
      }

      .cls-4 {
        fill: #f47836;
      }

      .cls-5 {
        fill: #3f2f2f;
      }

      .cls-6 {
        fill: #f48893;
      }

      .cls-7 {
        fill: #fff;
      }
    </style>
    <clipPath id="clippath">
      <rect class="cls-2" width="42.52" height="47.5"/>
    </clipPath>
  </defs>
  <g class="cls-1">
    <path class="cls-5" d="M10.66,48.57c0,.45-.36.81-.8.81s-.8-.36-.8-.81v-18c0-.45.36-.81.8-.81s.8.36.8.81v18Z"/>
    <path class="cls-5" d="M33.47,48.57c0,.45-.36.81-.8.81s-.8-.36-.8-.81v-18c0-.45.36-.81.8-.81s.8.36.8.81v18Z"/>
    <path class="cls-3" d="M7.31.34h27.89c.23,0,.41.18.41.41v35.83c0,.23-.18.41-.41.41H7.31c-.23,0-.41-.18-.41-.41V.75c0-.23.19-.41.41-.41Z"/>
    <rect class="cls-7" x="8.58" y="1.66" width="25.36" height="32.04"/>
    <rect class="cls-5" x="11.01" y="4.33" width=".41" height="27.43"/>
    <polygon class="cls-5" points="10.61 4.52 11.22 3.45 11.84 4.52 10.61 4.52"/>
    <rect class="cls-5" x="11.22" y="31.56" width="19.71" height=".41"/>
    <polygon class="cls-5" points="30.75 32.38 31.81 31.76 30.75 31.14 30.75 32.38"/>
    <path class="cls-6" d="M12.31,29.7s.09,0,.13-.02l6.61-2.22c.16-.05.27-.2.28-.38l.05-1.47.6.42c.12.08.27.1.41.04.13-.06.22-.19.24-.33l1.15-11.63,3.08,5.46c.08.15.25.23.41.21.17-.02.3-.14.34-.3l2.09-8.09,2.15,3.37c.09.14.26.21.42.18.16-.03.29-.16.32-.32l1.66-8.33c.04-.22-.1-.44-.32-.48-.22-.05-.44.1-.48.32l-1.46,7.33-2.11-3.31c-.09-.14-.25-.21-.41-.19-.16.03-.29.14-.33.3l-2.07,8.02-3.22-5.7c-.09-.15-.27-.24-.44-.2-.17.04-.31.18-.32.36l-1.21,12.23-.65-.45c-.12-.08-.28-.09-.42-.03-.13.07-.22.2-.22.35l-.07,1.93-6.34,2.13c-.22.07-.33.3-.26.52.06.17.22.28.39.28"/>
    <path class="cls-4" d="M10.09,2.26c0,.68-.55,1.23-1.22,1.23s-1.22-.55-1.22-1.23.55-1.23,1.22-1.23,1.22.55,1.22,1.23"/>
    <path class="cls-6" d="M34.8,2.26c0,.68-.55,1.23-1.22,1.23s-1.22-.55-1.22-1.23.55-1.23,1.22-1.23,1.22.55,1.22,1.23"/>
  </g>
</svg>