<?xml version="1.0" encoding="UTF-8"?>
<svg id="Layer_1" data-name="Layer 1" xmlns="http://www.w3.org/2000/svg" xmlns:xlink="http://www.w3.org/1999/xlink" viewBox="0 0 43.21 45.92">
  <defs>
    <style>
      .cls-1 {
        fill: #f3f3f4;
      }

      .cls-1, .cls-2, .cls-3, .cls-4, .cls-5, .cls-6, .cls-7, .cls-8, .cls-9, .cls-10, .cls-11, .cls-12, .cls-13, .cls-14, .cls-15, .cls-16, .cls-17, .cls-18, .cls-19, .cls-20, .cls-21, .cls-22, .cls-23, .cls-24, .cls-25, .cls-26, .cls-27 {
        stroke-width: 0px;
      }

      .cls-2 {
        fill: #1f1f1f;
      }

      .cls-3 {
        fill: #656565;
      }

      .cls-28 {
        clip-path: url(#clippath);
      }

      .cls-4 {
        fill: none;
      }

      .cls-5 {
        fill: #e1e0e0;
      }

      .cls-6 {
        fill: #adacac;
      }

      .cls-7 {
        fill: #878585;
      }

      .cls-8 {
        fill: #5b5959;
      }

      .cls-9 {
        fill: #b4b1b1;
      }

      .cls-10 {
        fill: #e2e2e2;
      }

      .cls-11 {
        fill: #957db9;
      }

      .cls-12 {
        fill: #aaa9a9;
      }

      .cls-13 {
        fill: #444;
      }

      .cls-14 {
        fill: #d0cece;
      }

      .cls-15 {
        fill: #f47836;
      }

      .cls-16 {
        fill: #b6b6b6;
      }

      .cls-17 {
        fill: #5d5d5d;
      }

      .cls-18 {
        fill: #7ebce7;
      }

      .cls-19 {
        fill: #a5acb5;
      }

      .cls-20 {
        fill: #add1ef;
      }

      .cls-21 {
        fill: #bf5e28;
      }

      .cls-22 {
        fill: #3d3d3d;
      }

      .cls-23 {
        fill: #7c7b7b;
      }

      .cls-24 {
        fill: #9b9a9a;
      }

      .cls-25 {
        fill: #fff;
      }

      .cls-26 {
        fill: #e5e4e4;
      }

      .cls-27 {
        fill: #b7b6b6;
      }
    </style>
    <clipPath id="clippath">
      <rect class="cls-4" x="0" y="-10.83" width="61.5" height="59.21"/>
    </clipPath>
  </defs>
  <rect class="cls-17" x="13.72" y="14.9" width="1.53" height="6.8"/>
  <rect class="cls-23" x="12.19" y="2.68" width="1.53" height="6.8"/>
  <rect class="cls-23" x="12.19" y="11.29" width="1.53" height="1.81"/>
  <rect class="cls-23" x="12.19" y="14.9" width="1.53" height="6.8"/>
  <rect class="cls-17" x="13.72" y="2.68" width="1.53" height="6.8"/>
  <rect class="cls-17" x="13.72" y="11.29" width="1.53" height="1.81"/>
  <rect class="cls-6" x="13.72" y=".88" width="1.53" height="1.81"/>
  <rect class="cls-26" x="12.19" y=".88" width="1.53" height="1.81"/>
  <rect class="cls-15" x="12.19" y="9.48" width="1.53" height="1.81"/>
  <rect class="cls-21" x="13.72" y="9.48" width="1.53" height="1.81"/>
  <rect class="cls-21" x="13.72" y="13.09" width="1.53" height="1.81"/>
  <rect class="cls-15" x="12.19" y="13.09" width="1.53" height="1.81"/>
  <rect class="cls-17" x="18.34" y="14.9" width="1.53" height="6.8"/>
  <rect class="cls-23" x="16.81" y="2.68" width="1.53" height="6.8"/>
  <rect class="cls-23" x="16.81" y="11.29" width="1.53" height="1.81"/>
  <rect class="cls-23" x="16.81" y="14.9" width="1.53" height="6.8"/>
  <rect class="cls-17" x="18.34" y="2.68" width="1.53" height="6.8"/>
  <rect class="cls-17" x="18.34" y="11.29" width="1.53" height="1.81"/>
  <rect class="cls-6" x="18.34" y=".88" width="1.53" height="1.81"/>
  <rect class="cls-26" x="16.81" y=".88" width="1.53" height="1.81"/>
  <rect class="cls-15" x="16.81" y="9.48" width="1.53" height="1.81"/>
  <rect class="cls-21" x="18.34" y="9.48" width="1.53" height="1.81"/>
  <rect class="cls-21" x="18.34" y="13.09" width="1.53" height="1.81"/>
  <rect class="cls-15" x="16.81" y="13.09" width="1.53" height="1.81"/>
  <g class="cls-28">
    <path class="cls-11" d="M8.27,21.7c0,.72-.58,1.31-1.3,1.31s-1.31-.58-1.31-1.31.58-1.31,1.31-1.31,1.3.58,1.3,1.31"/>
    <path class="cls-11" d="M13.49,21.7c0,.72-.58,1.31-1.31,1.31s-1.3-.58-1.3-1.31.58-1.31,1.3-1.31,1.31.58,1.31,1.31"/>
    <path class="cls-11" d="M25.8,21.7c0,.72-.58,1.31-1.31,1.31s-1.3-.58-1.3-1.31.58-1.31,1.3-1.31,1.31.58,1.31,1.31"/>
    <path class="cls-11" d="M31.03,21.7c0,.72-.58,1.31-1.31,1.31s-1.3-.58-1.3-1.31.58-1.31,1.3-1.31,1.31.58,1.31,1.31"/>
    <rect class="cls-5" y="21.7" width="36.68" height="9.51"/>
    <polygon class="cls-12" points="10.24 30.02 9.67 30.1 7.52 28.85 8.94 28.67 10.24 30.02"/>
    <polygon class="cls-7" points="12.2 31.98 6.54 31.98 6.54 33.94 14.16 33.94 12.2 31.98"/>
    <rect class="cls-9" x="0" y="31.98" width="6.54" height="1.96"/>
    <polygon class="cls-16" points="12.2 31.98 10.24 30.02 6.54 30.02 6.54 31.98 12.2 31.98"/>
    <polygon class="cls-1" points="6.54 30.02 0 30.02 0 31.21 0 31.98 6.54 31.98 6.54 30.02"/>
    <rect class="cls-9" x="0" y="35.9" width="6.54" height="10.02"/>
    <rect class="cls-7" x="6.55" y="35.9" width="9.35" height="10.02"/>
    <polygon class="cls-9" points="14.16 33.94 15.89 33.94 15.89 31.98 12.2 31.98 14.16 33.94"/>
    <polygon class="cls-1" points="15.89 31.98 15.89 30.02 10.24 30.02 12.2 31.98 15.89 31.98"/>
    <polygon class="cls-12" points="19.59 30.02 19.01 30.1 16.86 28.85 18.28 28.67 19.59 30.02"/>
    <polygon class="cls-7" points="15.89 33.94 23.51 33.94 21.55 31.98 15.89 31.98 15.89 33.94"/>
    <polygon class="cls-7" points="25.47 35.9 24.93 35.9 24.22 35.9 15.89 35.9 15.89 45.92 29.44 45.92 29.44 45.15 29.44 44.37 29.44 43.59 29.44 42.81 29.44 42.03 29.44 41.25 29.44 40.48 30.04 40.48 25.47 35.9"/>
    <polygon class="cls-16" points="21.55 31.98 19.59 30.02 15.89 30.02 15.89 31.98 21.55 31.98"/>
    <polygon class="cls-2" points="15.89 35.9 24.22 35.9 24.22 34.65 23.51 33.94 15.89 33.94 15.89 35.9"/>
    <rect class="cls-22" x="0" y="33.94" width="15.89" height="1.96"/>
    <polygon class="cls-9" points="30.04 40.48 34.88 40.48 34.88 41.25 34.88 42.03 34.88 42.81 34.88 43.59 34.88 44.37 34.88 45.15 34.88 45.32 35.49 45.92 36.68 45.92 36.68 35.9 25.47 35.9 30.04 40.48"/>
    <polygon class="cls-9" points="23.51 33.94 24.22 33.94 24.93 33.94 36.68 33.94 36.68 31.98 21.55 31.98 23.51 33.94"/>
    <polygon class="cls-7" points="34.88 45.32 34.88 45.92 35.49 45.92 34.88 45.32"/>
    <polygon class="cls-1" points="36.68 31.98 36.68 31.21 36.68 30.02 19.59 30.02 21.55 31.98 36.68 31.98"/>
    <polygon class="cls-2" points="24.93 35.9 25.47 35.9 24.93 35.37 24.93 35.9"/>
    <polygon class="cls-22" points="24.93 35.37 25.47 35.9 36.68 35.9 36.68 33.94 24.93 33.94 24.93 35.37"/>
    <polygon class="cls-22" points="23.51 33.94 24.22 34.65 24.22 33.94 23.51 33.94"/>
    <polygon class="cls-10" points="24.22 34.65 24.22 35.9 24.93 35.9 24.93 35.37 24.22 34.65"/>
    <polygon class="cls-1" points="24.93 33.94 24.22 33.94 24.22 34.65 24.93 35.37 24.93 33.94"/>
    <polygon class="cls-13" points="32.38 42.81 29.44 42.81 29.44 43.59 33.16 43.59 32.38 42.81"/>
    <polygon class="cls-13" points="29.44 44.37 29.44 45.15 34.71 45.15 33.93 44.37 29.44 44.37"/>
    <polygon class="cls-8" points="34.88 44.37 33.94 44.37 34.71 45.15 34.88 45.15 34.88 44.37"/>
    <polygon class="cls-13" points="30.82 41.25 29.44 41.25 29.44 42.03 31.6 42.03 30.82 41.25"/>
    <polygon class="cls-8" points="31.6 42.03 34.88 42.03 34.88 41.25 30.82 41.25 31.6 42.03"/>
    <polygon class="cls-8" points="33.16 43.59 34.88 43.59 34.88 42.81 32.38 42.81 33.16 43.59"/>
    <polygon class="cls-3" points="30.04 40.48 29.44 40.48 29.44 41.25 30.82 41.25 30.04 40.48"/>
    <polygon class="cls-7" points="34.88 41.25 34.88 40.48 30.04 40.48 30.82 41.25 34.88 41.25"/>
    <polygon class="cls-3" points="31.6 42.03 29.44 42.03 29.44 42.81 32.38 42.81 31.6 42.03"/>
    <polygon class="cls-7" points="32.38 42.81 34.88 42.81 34.88 42.03 31.6 42.03 32.38 42.81"/>
    <polygon class="cls-7" points="33.93 44.37 34.88 44.37 34.88 43.59 33.16 43.59 33.93 44.37"/>
    <polygon class="cls-3" points="33.16 43.59 29.44 43.59 29.44 44.37 33.93 44.37 33.16 43.59"/>
    <polygon class="cls-3" points="34.71 45.15 29.44 45.15 29.44 45.92 34.88 45.92 34.88 45.32 34.71 45.15"/>
    <polygon class="cls-7" points="34.71 45.15 34.88 45.32 34.88 45.15 34.71 45.15"/>
    <rect class="cls-1" x="30.45" y="33.94" width=".72" height="1.96"/>
    <rect class="cls-1" x="17.98" y="33.94" width=".72" height="1.96"/>
    <rect class="cls-10" x="11.75" y="33.94" width=".72" height="1.96"/>
    <rect class="cls-1" x="5.52" y="33.94" width=".72" height="1.96"/>
    <path class="cls-3" d="M24.87,37.72v1.02c0,.3.24.53.54.53v-2.09c-.3,0-.54.24-.54.53"/>
    <path class="cls-13" d="M25.4,37.19v2.09c.3,0,.54-.24.54-.53v-1.02c0-.3-.24-.53-.54-.53"/>
    <path class="cls-24" d="M25.68,38.23c0,.15-.12.28-.28.28s-.28-.12-.28-.28.12-.28.28-.28.28.12.28.28"/>
    <path class="cls-7" d="M31.62,37.72v1.02c0,.3.24.53.54.53v-2.09c-.3,0-.54.24-.54.53"/>
    <path class="cls-8" d="M32.16,37.19v2.09c.3,0,.54-.24.54-.53v-1.02c0-.3-.24-.53-.54-.53"/>
    <path class="cls-14" d="M32.44,38.23c0,.15-.12.28-.28.28s-.28-.12-.28-.28.12-.28.28-.28.28.12.28.28"/>
    <path class="cls-7" d="M36.68,36.33v1.03c2.08,0,3.77,1.69,3.77,3.77v4.79h1.03v-4.79c0-2.65-2.15-4.81-4.81-4.81"/>
    <path class="cls-27" d="M36.68,35.3v1.03c2.65,0,4.81,2.15,4.81,4.81v4.79h1.03v-4.79c0-3.22-2.62-5.84-5.84-5.84"/>
    <polygon class="cls-13" points="23.68 42.81 22.68 42.81 22.68 43.59 24.46 43.59 28.13 43.59 28.13 42.81 23.68 42.81"/>
    <polygon class="cls-13" points="22.68 41.25 22.68 41.81 22.68 42.03 22.9 42.03 28.13 42.03 28.13 41.25 22.68 41.25"/>
    <polygon class="cls-13" points="25.24 44.37 22.68 44.37 22.68 45.15 26.02 45.15 28.13 45.15 28.13 44.37 25.24 44.37"/>
    <rect class="cls-3" x="22.68" y="40.48" width="5.45" height=".78"/>
    <polygon class="cls-3" points="22.9 42.03 22.68 42.03 22.68 42.81 23.68 42.81 28.13 42.81 28.13 42.03 22.9 42.03"/>
    <polygon class="cls-3" points="24.46 43.59 22.68 43.59 22.68 44.37 25.24 44.37 28.13 44.37 28.13 43.59 24.46 43.59"/>
    <polygon class="cls-3" points="26.02 45.15 22.68 45.15 22.68 45.92 26.79 45.92 28.13 45.92 28.13 45.15 26.02 45.15"/>
    <rect class="cls-18" x="6.55" y="31.12" width="3.42" height="9.35"/>
    <path class="cls-20" d="M6.54,31.12h3.42c0-1.89-1.53-3.42-3.42-3.42s-3.42,1.53-3.42,3.42v9.35h3.42v-9.35Z"/>
    <path class="cls-20" d="M15.89,31.12h3.42c0-1.89-1.53-3.42-3.42-3.42s-3.42,1.53-3.42,3.42v9.35h3.42v-9.35Z"/>
    <rect class="cls-18" x="15.89" y="31.12" width="3.42" height="9.35"/>
    <path class="cls-12" d="M19.31,40.48v2.03c0,1.89-1.53,3.42-3.42,3.42h5.45v-5.45h-2.04Z"/>
    <path class="cls-12" d="M12.48,42.51v-2.03h-2.52v2.03c0,1.89-1.53,3.42-3.42,3.42h9.35c-1.89,0-3.42-1.53-3.42-3.42"/>
    <path class="cls-5" d="M3.13,42.51v-2.03h-1.92v5.45h5.33c-1.89,0-3.42-1.53-3.42-3.42"/>
    <rect class="cls-19" x="6.55" y="40.48" width="3.42" height="2.03"/>
    <path class="cls-20" d="M6.54,42.51v-2.03h-3.42v2.03c0,1.89,1.53,3.42,3.42,3.42s3.42-1.53,3.42-3.42h-3.42Z"/>
    <path class="cls-20" d="M15.89,42.51v-2.03h-3.42v2.03c0,1.89,1.53,3.42,3.42,3.42s3.42-1.53,3.42-3.42h-3.42Z"/>
    <rect class="cls-19" x="15.89" y="40.48" width="3.42" height="2.03"/>
    <rect class="cls-25" x="1.21" y="40.48" width="20.14" height="1.16"/>
  </g>
</svg>