<?xml version="1.0" encoding="UTF-8"?>
<svg id="Layer_1" data-name="Layer 1" xmlns="http://www.w3.org/2000/svg" xmlns:xlink="http://www.w3.org/1999/xlink" viewBox="0 0 55.88 37.09">
  <defs>
    <style>
      .cls-1 {
        clip-path: url(#clippath);
      }

      .cls-2 {
        fill: none;
      }

      .cls-2, .cls-3, .cls-4, .cls-5, .cls-6, .cls-7, .cls-8, .cls-9, .cls-10, .cls-11, .cls-12 {
        stroke-width: 0px;
      }

      .cls-3 {
        fill: #957db9;
      }

      .cls-4 {
        fill: #5d2d13;
      }

      .cls-13 {
        clip-path: url(#clippath-1);
      }

      .cls-14 {
        clip-path: url(#clippath-2);
      }

      .cls-5 {
        fill: #6d3d1f;
      }

      .cls-6 {
        fill: #8e5d3e;
      }

      .cls-7 {
        fill: #f47836;
      }

      .cls-8 {
        fill: #7ebce7;
      }

      .cls-9 {
        fill: #add1ef;
      }

      .cls-10 {
        fill: #9caab8;
      }

      .cls-11 {
        fill: #7e4d2e;
      }

      .cls-12 {
        fill: #fff;
      }
    </style>
    <clipPath id="clippath">
      <rect class="cls-2" y="-11.66" width="91.44" height="48.75"/>
    </clipPath>
    <clipPath id="clippath-1">
      <rect class="cls-2" y=".09" width="55.88" height="37"/>
    </clipPath>
    <clipPath id="clippath-2">
      <rect class="cls-2" y="-11.66" width="91.44" height="48.75"/>
    </clipPath>
  </defs>
  <g class="cls-1">
    <path class="cls-4" d="M32.72,33.69c0,.72-.59,2.13-1.31,2.13H1.31C.59,35.82,0,34.42,0,33.69l1.23-17.61c0-.72.59-1.31,1.31-1.31h27.64c.72,0,1.31.59,1.31,1.31l1.23,17.61Z"/>
    <path class="cls-11" d="M2.54,14.77h27.64c.72,0,1.31.59,1.31,1.31v18.44c0,.72-.59,1.31-1.31,1.31H2.54c-.72,0-1.31-.59-1.31-1.31v-18.43c0-.72.59-1.31,1.31-1.31Z"/>
    <path class="cls-5" d="M20.61,17.92h-8.49c-1.17,0-2.13-.95-2.13-2.13v-2.67c0-1.17.96-2.13,2.13-2.13h8.49c1.17,0,2.13.96,2.13,2.13v2.67c0,1.17-.95,2.13-2.13,2.13M12.12,12.63c-.27,0-.49.22-.49.49v2.67c0,.27.22.49.49.49h8.49c.27,0,.49-.22.49-.49v-2.67c0-.27-.22-.49-.49-.49h-8.49Z"/>
    <path class="cls-6" d="M2.54,14.77h27.64c.72,0,1.31.59,1.31,1.31v8.6c0,.72-.59,1.31-1.31,1.31H2.54c-.72,0-1.31-.59-1.31-1.31v-8.6c0-.72.59-1.31,1.31-1.31Z"/>
    <path class="cls-10" d="M18.79,26.28c0,.54-.44.98-.98.98h-2.91c-.54,0-.98-.44-.98-.98s.44-.98.98-.98h2.91c.54,0,.98.44.98.98"/>
    <path class="cls-12" d="M15.49,25.65h2.5c.23,0,.41.18.41.41v.16c0,.23-.18.41-.41.41h-2.5c-.23,0-.41-.18-.41-.41v-.16c0-.23.18-.41.41-.41Z"/>
    <rect class="cls-3" x="29.37" y="26.56" width="26.5" height=".5"/>
    <rect class="cls-3" x="29.37" y="25.84" width="26.5" height=".5"/>
    <rect class="cls-3" x="29.37" y="25.11" width="26.5" height=".5"/>
    <rect class="cls-3" x="29.37" y="24.39" width="26.5" height=".5"/>
    <rect class="cls-3" x="29.37" y="23.66" width="26.5" height=".5"/>
    <rect class="cls-3" x="29.37" y="22.94" width="26.5" height=".5"/>
    <rect class="cls-3" x="29.37" y="22.22" width="26.5" height=".5"/>
    <rect class="cls-3" x="29.37" y="21.49" width="26.5" height=".5"/>
    <rect class="cls-3" x="29.37" y="20.77" width="26.5" height=".5"/>
    <rect class="cls-3" x="29.37" y="20.04" width="26.5" height=".5"/>
    <rect class="cls-3" x="29.37" y="19.32" width="26.5" height=".5"/>
    <rect class="cls-3" x="29.37" y="18.59" width="26.5" height=".5"/>
    <rect class="cls-7" x="39.57" y="18.59" width="6.12" height="8.57"/>
    <path class="cls-9" d="M45.76,22.97v11.51c0,.1-.08.19-.19.19h-25.17c-.1,0-.19-.09-.19-.19v-11.51c0-.1.08-.19.19-.19h25.17c.1,0,.19.09.19.19"/>
    <path class="cls-8" d="M36.23,25.83c-.77-.93-1.94-1.52-3.24-1.52s-2.47.59-3.25,1.52c-.62.73-.99,1.68-.99,2.71,0,2.34,1.89,4.23,4.23,4.23s4.23-1.89,4.23-4.23c0-1.03-.37-1.98-.99-2.71"/>
    <path class="cls-8" d="M29.9,33.58c-1.29,0-2.5-.57-3.32-1.56-.05-.05-.11-.09-.18-.09h-1.03c.02-.11.03-.23.03-.34,0-1.23-1-2.23-2.23-2.23-.25,0-.49.04-.71.12v-1.53c.22.07.46.12.71.12,1.23,0,2.23-1,2.23-2.23,0-.12-.01-.23-.03-.34h1.03c.07,0,.14-.03.18-.09.83-.99,2.04-1.56,3.32-1.56.13,0,.24-.11.24-.24s-.11-.24-.24-.24h-8.48c-.26,0-.48.21-.48.48v9.72c0,.26.21.48.48.48h8.48c.13,0,.24-.11.24-.24,0-.13-.11-.24-.24-.24"/>
  </g>
  <g class="cls-13">
    <path class="cls-8" d="M44.75,23.39h-8.48c-.13,0-.24.11-.24.24s.11.24.24.24c1.29,0,2.5.57,3.32,1.56.05.06.11.09.18.09h1.03c-.02.11-.03.22-.03.34,0,1.23,1,2.23,2.23,2.23.25,0,.49-.04.71-.12v1.53c-.22-.07-.46-.12-.71-.12-1.23,0-2.22,1-2.22,2.22,0,.12.01.23.03.35h-1.03c-.07,0-.14.03-.18.09-.83.99-2.04,1.56-3.32,1.56-.13,0-.24.11-.24.24s.11.24.24.24h8.48c.26,0,.48-.22.48-.48v-9.72c0-.26-.21-.48-.48-.48"/>
    <path class="cls-7" d="M28.27.09l9.83,4.26-8.6,6.39-.48-4.18c-13.33,3.62-22.74,15.52-23.09,29.49-.01.59-.51,1.06-1.1,1.05-.59-.01-1.06-.51-1.05-1.1.38-15.04,10.57-27.83,24.99-31.6l-.5-4.3Z"/>
  </g>
  <g class="cls-14">
    <path class="cls-12" d="M35.06,27.76h-.68c-.02.24-.09.46-.21.64s-.26.33-.42.45c-.17.12-.35.21-.55.27-.2.06-.39.09-.58.09h-.08s0,0,0,.01c0,0,0,0,0,.01.32.32.65.68.98,1.08.33.4.66.79.98,1.19v.07h-1.02c-.17-.2-.34-.41-.52-.64-.18-.23-.36-.45-.54-.67-.18-.22-.35-.42-.51-.6s-.3-.33-.42-.44c.04-.11.08-.22.11-.32.03-.11.06-.22.1-.33.19.05.37.07.54.07.31,0,.58-.07.82-.21.24-.14.38-.37.44-.68h-1.93v-.65h1.9c-.07-.19-.2-.34-.37-.43-.17-.09-.38-.14-.61-.14h-.91v-.66h3.82l-.32.66h-1.17v.03c.07.04.15.11.24.2.08.09.15.21.19.34h1.06l-.32.65Z"/>
  </g>
</svg>