<?xml version="1.0" encoding="UTF-8"?>
<svg id="Layer_1" data-name="Layer 1" xmlns="http://www.w3.org/2000/svg" xmlns:xlink="http://www.w3.org/1999/xlink" viewBox="0 0 42.52 36.37">
  <defs>
    <style>
      .cls-1 {
        clip-path: url(#clippath);
      }

      .cls-2 {
        fill: none;
      }

      .cls-2, .cls-3, .cls-4, .cls-5, .cls-6, .cls-7, .cls-8, .cls-9, .cls-10, .cls-11, .cls-12, .cls-13 {
        stroke-width: 0px;
      }

      .cls-3 {
        fill: #6ea4ca;
      }

      .cls-4 {
        fill: #edc38f;
      }

      .cls-5 {
        fill: #957db9;
      }

      .cls-6 {
        fill: #ffc712;
      }

      .cls-14 {
        clip-path: url(#clippath-1);
      }

      .cls-15 {
        clip-path: url(#clippath-2);
      }

      .cls-7 {
        fill: #f47836;
      }

      .cls-8 {
        fill: #7ebce7;
      }

      .cls-9 {
        fill: #3f2f2f;
      }

      .cls-10 {
        fill: #c96428;
      }

      .cls-11 {
        fill: #b292c4;
      }

      .cls-12 {
        fill: #ffe4b8;
      }

      .cls-13 {
        fill: #fad099;
      }
    </style>
    <clipPath id="clippath">
      <rect class="cls-2" x="0" y="-10.39" width="51.71" height="46.77"/>
    </clipPath>
    <clipPath id="clippath-1">
      <rect class="cls-2" x="0" y="-.04" width="42.52" height="36.42"/>
    </clipPath>
    <clipPath id="clippath-2">
      <rect class="cls-2" x="0" y="-10.39" width="51.71" height="46.77"/>
    </clipPath>
  </defs>
  <polygon class="cls-4" points="19.99 8.7 19.99 12.58 23.57 12.58 23.57 10.98 22.92 11.63 19.99 8.7"/>
  <g class="cls-1">
    <path class="cls-4" d="M21.86,9.46c-.7,0-1.35-.29-1.85-.77h0s2.93,2.94,2.93,2.94l.65-.65v-2.16c-.48.41-1.08.64-1.71.64"/>
    <polygon class="cls-12" points="19.74 9.46 21.83 10.61 23.85 9.46 25.64 10.69 21.78 15.63 18.14 10.54 19.74 9.46"/>
  </g>
  <g class="cls-14">
    <path class="cls-13" d="M24.82,6.83s-.04,0-.06-.02l-.05-.04v.06c-.32,1.55-1.49,2.63-2.85,2.63s-2.53-1.08-2.84-2.63v-.06s-.06.04-.06.04c-.02,0-.04.01-.05.02-.24,0-.67-.65-.72-1.33-.06-.79-.04-1.23.05-1.33.01-.01.02-.01.02-.01.08,0,.21.1.32.27l.14.18-.06-.21c-.08-.26-.11-.49-.11-.7,0-1.97,1.5-3.58,3.33-3.58s3.33,1.61,3.33,3.58c0,.21-.04.43-.11.7l-.06.21.13-.18c.12-.16.24-.26.32-.26,0,0,0,0,.02.01.09.09.1.54.05,1.33-.05.69-.48,1.33-.71,1.33"/>
    <path class="cls-9" d="M21.78,2.26c.63.04,1.12-.22,1.6-.24.48-.02.81.48,1.05,1.02.4.92.1,2,.58,1.56.48-.43,0-2.59,0-2.59,0,0-.53-1.83-2.2-2.01-1.67-.19-3.44.22-4.03,1.88-.59,1.67-.27,2.51-.08,2.72.19.21.28-.27.54-1.32.26-1.06.59-1.44,1.02-1.37.43.08.62.29,1.52.35"/>
  </g>
  <g class="cls-15">
    <polygon class="cls-10" points="22.46 11.17 21.83 10.47 21.83 16.41 21.84 16.42 22.77 15.05 22.22 11.65 22.46 11.17"/>
    <polygon class="cls-7" points="21.82 10.47 21.8 10.47 21.79 10.47 21.2 11.15 21.45 11.65 20.9 15.05 21.83 16.42 21.83 16.41 21.83 10.47 21.82 10.47"/>
    <polygon class="cls-11" points="21.78 27.36 21.78 15.63 24.92 10.21 30.12 12.31 31.61 27.36 21.78 27.36"/>
    <polygon class="cls-5" points="21.78 27.36 21.78 15.63 18.64 10.21 13.44 12.31 11.96 27.36 21.78 27.36"/>
    <polygon class="cls-5" points="26.11 10.67 24.92 10.21 21.78 15.63 24.15 13.8 24.13 12.92 25.04 12.92 26.11 10.67"/>
    <polygon class="cls-11" points="17.45 10.67 18.64 10.21 21.78 15.63 19.41 13.8 19.43 12.92 18.52 12.92 17.45 10.67"/>
    <polygon class="cls-4" points="30.9 18.49 30.9 22.37 34.48 22.37 34.48 20.77 33.83 21.41 30.9 18.49"/>
    <path class="cls-4" d="M32.77,19.25c-.7,0-1.35-.29-1.85-.78h0s2.93,2.94,2.93,2.94l.65-.65v-2.17c-.48.41-1.08.65-1.71.65"/>
    <polygon class="cls-12" points="30.65 19.25 32.74 20.4 34.77 19.25 36.55 20.48 32.69 25.42 29.05 20.33 30.65 19.25"/>
    <path class="cls-13" d="M35.73,16.62s-.04,0-.06-.02l-.05-.04v.06c-.32,1.55-1.49,2.63-2.85,2.63s-2.53-1.08-2.84-2.63v-.06s-.06.04-.06.04c-.02.01-.03.02-.05.02-.24,0-.67-.65-.72-1.34-.06-.79-.04-1.23.05-1.32,0,0,.01,0,.02,0,.08,0,.21.1.32.26l.14.19-.07-.22c-.08-.27-.11-.48-.11-.69,0-1.97,1.5-3.58,3.33-3.58s3.33,1.61,3.33,3.58c0,.21-.04.43-.11.69l-.06.22.13-.19c.12-.16.24-.26.32-.26,0,0,0,0,.02,0,.09.09.1.53.05,1.32-.05.69-.48,1.34-.71,1.34"/>
    <path class="cls-9" d="M32.69,12.05c.63.04,1.12-.21,1.6-.24.48-.02.81.48,1.05,1.03.4.91.1,2,.58,1.56.48-.44,0-2.59,0-2.59,0,0-.53-1.82-2.2-2.02-1.67-.18-3.44.22-4.03,1.89-.59,1.66-.27,2.51-.08,2.72.19.21.28-.27.54-1.32.26-1.07.59-1.45,1.02-1.37.43.08.62.3,1.52.35"/>
    <polygon class="cls-6" points="33.37 20.96 32.75 20.26 32.75 26.21 32.75 26.21 33.68 24.84 33.14 21.44 33.37 20.96"/>
    <polygon class="cls-7" points="32.73 20.26 32.72 20.26 32.7 20.26 32.08 20.87 32.36 21.44 31.81 24.84 32.74 26.21 32.75 26.21 32.75 20.26 32.73 20.26"/>
    <polygon class="cls-11" points="32.69 29.63 32.69 25.42 35.83 20 41.03 22.1 42.52 29.63 32.69 29.63"/>
    <polygon class="cls-5" points="32.69 29.63 32.69 25.42 29.55 20 24.35 22.1 22.87 29.63 32.69 29.63"/>
    <polygon class="cls-5" points="37.02 20.46 35.83 20 32.69 25.42 35.07 23.59 35.05 22.71 35.95 22.71 37.02 20.46"/>
    <polygon class="cls-11" points="28.36 20.46 29.55 20 32.69 25.42 30.32 23.59 30.34 22.71 29.43 22.71 28.36 20.46"/>
    <polygon class="cls-4" points="8.04 18.49 8.04 22.37 11.62 22.37 11.62 20.77 10.97 21.41 8.04 18.49"/>
    <path class="cls-4" d="M9.9,19.25c-.7,0-1.35-.29-1.85-.78h0s2.93,2.94,2.93,2.94l.65-.65v-2.17c-.48.41-1.08.65-1.71.65"/>
    <polygon class="cls-12" points="7.78 19.25 9.87 20.4 11.9 19.25 13.68 20.48 9.83 25.42 6.19 20.33 7.78 19.25"/>
    <path class="cls-4" d="M12.87,16.62s-.04,0-.06-.02l-.05-.04v.06c-.32,1.55-1.49,2.63-2.85,2.63s-2.53-1.08-2.84-2.63v-.06s-.06.04-.06.04c-.01.01-.03.02-.05.02-.24,0-.67-.65-.72-1.34-.06-.79-.04-1.23.05-1.32,0,0,.01,0,.02,0,.08,0,.21.1.32.26l.14.19-.06-.22c-.08-.27-.11-.48-.11-.69,0-1.97,1.5-3.58,3.33-3.58s3.33,1.61,3.33,3.58c0,.21-.04.43-.11.69l-.07.22.14-.19c.12-.16.24-.26.32-.26,0,0,0,0,.02,0,.09.09.1.53.04,1.32-.05.69-.48,1.34-.72,1.34"/>
    <path class="cls-9" d="M9.83,12.05c.63.04,1.12-.21,1.6-.24.49-.02.81.48,1.05,1.03.4.91.1,2,.58,1.56.48-.44,0-2.59,0-2.59,0,0-.53-1.82-2.19-2.02-1.67-.18-3.44.22-4.03,1.89-.59,1.66-.27,2.51-.08,2.72.19.21.29-.27.54-1.32.26-1.07.59-1.45,1.02-1.37.43.08.62.3,1.52.35"/>
    <polygon class="cls-6" points="10.59 20.78 9.88 20.26 9.88 26.21 9.88 26.21 10.82 24.84 10.27 21.44 10.59 20.78"/>
    <polygon class="cls-7" points="9.86 20.26 9.85 20.26 9.84 20.26 9.18 20.82 9.49 21.44 8.94 24.84 9.88 26.21 9.88 26.21 9.88 20.26 9.86 20.26"/>
    <polygon class="cls-8" points="9.83 29.63 9.83 25.42 12.97 20 18.17 22.1 19.65 29.63 9.83 29.63"/>
    <polygon class="cls-3" points="9.83 29.63 9.83 25.42 6.69 20 1.49 22.1 0 29.63 9.83 29.63"/>
    <polygon class="cls-3" points="14.16 20.46 12.97 20 9.83 25.42 12.2 23.59 12.18 22.71 13.09 22.71 14.16 20.46"/>
    <polygon class="cls-8" points="5.5 20.46 6.69 20 9.83 25.42 7.45 23.59 7.47 22.71 6.57 22.71 5.5 20.46"/>
    <polygon class="cls-4" points="19.5 25.23 19.5 29.11 23.07 29.11 23.07 27.51 22.42 28.16 19.5 25.23"/>
    <path class="cls-4" d="M21.36,26c-.7,0-1.35-.29-1.85-.77h0s2.93,2.93,2.93,2.93l.65-.65v-2.16c-.48.41-1.08.65-1.71.65"/>
    <polygon class="cls-12" points="19.24 26 21.33 27.14 23.36 26 25.14 27.23 21.28 32.16 17.64 27.07 19.24 26"/>
    <path class="cls-13" d="M24.32,23.36s-.04,0-.06-.02l-.05-.04v.07c-.32,1.55-1.49,2.63-2.85,2.63s-2.53-1.08-2.84-2.63v-.07s-.06.04-.06.04c-.01.01-.03.02-.05.02-.24,0-.67-.65-.72-1.34-.06-.79-.04-1.23.05-1.32.01,0,.02,0,.02,0,.08,0,.21.09.32.26l.14.19-.06-.22c-.08-.26-.11-.48-.11-.69,0-1.97,1.5-3.58,3.33-3.58s3.33,1.61,3.33,3.58c0,.21-.04.43-.11.69l-.06.22.13-.19c.12-.16.24-.26.32-.26,0,0,0,0,.02,0,.09.09.1.53.05,1.32-.05.69-.48,1.34-.71,1.34"/>
    <path class="cls-9" d="M21.28,18.79c.63.04,1.12-.22,1.6-.24.48-.03.81.48,1.05,1.02.4.92.1,2,.58,1.56.48-.44,0-2.59,0-2.59,0,0-.53-1.83-2.2-2.01-1.67-.19-3.44.21-4.03,1.88-.59,1.67-.27,2.51-.08,2.72.19.21.28-.27.54-1.32.26-1.06.59-1.45,1.02-1.37.43.08.62.3,1.52.35"/>
    <polygon class="cls-10" points="22.07 27.48 21.34 27 21.34 32.95 21.34 32.95 22.27 31.58 21.73 28.19 22.07 27.48"/>
    <polygon class="cls-7" points="21.32 27 21.31 27 21.29 27 20.6 27.49 20.95 28.19 20.4 31.58 21.33 32.95 21.34 32.95 21.34 27 21.32 27"/>
    <polygon class="cls-8" points="21.28 36.37 21.28 32.16 24.42 26.74 29.62 28.85 31.11 36.37 21.28 36.37"/>
    <polygon class="cls-3" points="21.28 36.37 21.28 32.16 18.14 26.74 12.94 28.85 11.46 36.37 21.28 36.37"/>
    <polygon class="cls-3" points="25.61 27.21 24.42 26.74 21.28 32.17 23.66 30.33 23.64 29.45 24.54 29.45 25.61 27.21"/>
    <polygon class="cls-8" points="16.95 27.21 18.14 26.74 21.28 32.17 18.91 30.33 18.93 29.45 18.02 29.45 16.95 27.21"/>
  </g>
</svg>