<?xml version="1.0" encoding="UTF-8"?>
<svg id="Layer_1" data-name="Layer 1" xmlns="http://www.w3.org/2000/svg" xmlns:xlink="http://www.w3.org/1999/xlink" viewBox="0 0 42.52 39.9">
  <defs>
    <style>
      .cls-1 {
        fill: #414141;
      }

      .cls-1, .cls-2, .cls-3, .cls-4, .cls-5, .cls-6, .cls-7, .cls-8, .cls-9, .cls-10, .cls-11, .cls-12, .cls-13, .cls-14, .cls-15, .cls-16, .cls-17 {
        stroke-width: 0px;
      }

      .cls-18 {
        clip-path: url(#clippath);
      }

      .cls-2 {
        fill: none;
      }

      .cls-3 {
        fill: #ffdaab;
      }

      .cls-4 {
        fill: #4d4d4e;
      }

      .cls-5 {
        fill: #edc38f;
      }

      .cls-6 {
        fill: #957db9;
      }

      .cls-7 {
        fill: #42bfb5;
      }

      .cls-8 {
        fill: #ffc712;
      }

      .cls-9 {
        fill: #f47836;
      }

      .cls-10 {
        fill: #7ebce7;
      }

      .cls-11 {
        fill: #7e4d2e;
      }

      .cls-12 {
        fill: #f48893;
      }

      .cls-13 {
        fill: #fff;
      }

      .cls-14 {
        fill: #fad099;
      }

      .cls-15 {
        fill: #f19b2d;
      }

      .cls-16 {
        fill: #1d2a38;
      }

      .cls-17 {
        fill: #9c603e;
      }
    </style>
    <clipPath id="clippath">
      <rect class="cls-2" y="0" width="42.52" height="39.89"/>
    </clipPath>
  </defs>
  <rect class="cls-12" x="10.74" y="29.05" width="9.89" height="10.84"/>
  <g class="cls-18">
    <path class="cls-5" d="M26.48,16.88v1.04c0,.05-.02.1-.05.14-.04.06-.11.09-.19.09h-.95c-.08,0-.15-.04-.19-.09-.03-.04-.05-.09-.05-.14v-1.04c0-.06.02-.11.06-.16.05-.05.11-.08.18-.08h.95c.07,0,.13.03.17.07.04.04.07.1.07.17"/>
    <path class="cls-5" d="M21.02,20.35h2.97c.21,0,.39.17.39.39v.32c0,.22-.17.39-.39.39h-2.97c-.22,0-.39-.18-.39-.39v-.32c0-.22.17-.39.39-.39Z" transform="translate(-3.12 37.84) rotate(-76.36)"/>
    <path class="cls-5" d="M22.19,22.19c-.19-.1-.43-.03-.53.16l-.81,1.55c-.1.19-.03.43.16.53l.21.11c.19.1.43.03.53-.16l.81-1.55c.1-.19.03-.43-.16-.53l-.21-.11Z"/>
    <path class="cls-5" d="M20.9,23.92c.27-.1.58.04.67.31.1.27-.04.58-.31.67l-.6.22c-.27.1-.57-.04-.67-.31-.1-.27.04-.58.31-.68l.6-.22Z"/>
    <path class="cls-5" d="M29.76,22.21c.05.21-.08.42-.29.47l-.31.07c-.21.05-.42-.08-.47-.29l-.7-2.88c-.05-.21.08-.42.29-.47l.31-.07c.21-.05.42.08.47.29l.7,2.88Z"/>
    <path class="cls-5" d="M29.19,22.19c.19-.1.43-.03.53.16l.81,1.55c.1.19.03.43-.16.53l-.21.11c-.19.1-.43.03-.53-.16l-.81-1.55c-.1-.19-.03-.43.16-.53l.21-.11Z"/>
    <path class="cls-5" d="M30.48,23.92c-.27-.1-.58.04-.67.31-.1.27.04.58.31.67l.59.22c.28.1.58-.04.68-.31.1-.27-.04-.58-.31-.68l-.6-.22Z"/>
    <path class="cls-15" d="M27.74,16.66c-.45.12-3.46.17-3.95,0-.5-.17-.54-.38-.54-.38.35-.2.54-1.96.54-1.96,0-.03.03-.26.04-.29.05-.34.13-.66.27-.95.27-.52.75-.89,1.66-.89s1.39.41,1.67.96c0,0,.31,1.16.31,1.17,0,0,.23,1.79.64,2.07,0,0-.15.15-.64.27"/>
    <path class="cls-14" d="M27.55,15.05c0,1.22-.8,2.21-1.79,2.21s-1.78-.99-1.78-2.21c0-.26.04-.5.1-.73.24-.86.91-1.48,1.68-1.48s1.44.62,1.69,1.48c.07.23.1.48.1.73"/>
    <path class="cls-14" d="M25.09,36.74c0,.22-.17.39-.39.39h-.57c-.22,0-.39-.17-.39-.39l-.39-11.17c0-.22.17-.39.39-.39h.96c.22,0,.78.17.78.39l-.39,11.17Z"/>
    <path class="cls-14" d="M26.33,36.74c0,.22.17.39.39.39h.57c.22,0,.39-.17.39-.39l.39-11.17c0-.22-.17-.39-.39-.39h-.96c-.22,0-.78.17-.78.39l.39,11.17Z"/>
    <path class="cls-15" d="M27.74,14.32h-3.95l.02-.2s0-.06.02-.09c.05-.34.13-.66.27-.94.27-.52.75-.89,1.66-.89s1.39.41,1.67.96c0,0,.01.02.01.02.18.36.26.76.3,1.15"/>
    <path class="cls-7" d="M29.16,19.28l-.74-1.22s-.02-.03-.03-.04l-.05-.09c-.06-.1-.16-.16-.27-.18-.17-.07-.34-.1-.44-.1h-3.84c-.09,0-.27.03-.43.1-.12.01-.24.07-.3.18l-.81,1.35c-.11.18-.05.42.13.54l.71.43c.08.05.17.06.26.04-.02.08-.03.16-.03.24,0,.44.27.82.65,1,.14.49.24.89.24,1.06.01.6-.98,1.81-.83,3.44.1.21.19.41.41.41h3.84c.23,0,.31-.2.41-.41.14-1.63-.84-2.84-.83-3.44,0-.17.11-.59.25-1.09.36-.19.6-.55.6-.98,0-.08-.01-.16-.03-.24.09.02.18,0,.27-.04l.71-.43c.18-.11.24-.35.13-.54"/>
    <path class="cls-1" d="M25.14,38.78c0-1.11-.32-2.01-.72-2.01s-.72.9-.72,2.01.32,1.12.72,1.12.72,0,.72-1.12"/>
    <path class="cls-4" d="M25.25,38.37c0-1.28-.37-2.32-.83-2.32s-.83,1.04-.83,2.32.37,1.29.83,1.29.83,0,.83-1.29"/>
    <polygon class="cls-14" points="25.05 37.99 23.79 37.99 23.72 31.55 25.12 31.55 25.05 37.99"/>
    <path class="cls-14" d="M25.05,37.95c0-.41-.28-.75-.63-.75s-.63.34-.63.75.28.75.63.75.63-.34.63-.75"/>
    <path class="cls-1" d="M27.72,38.78c0-1.11-.32-2.01-.72-2.01s-.72.9-.72,2.01.32,1.12.72,1.12.72,0,.72-1.12"/>
    <path class="cls-4" d="M27.83,38.37c0-1.28-.37-2.32-.83-2.32s-.83,1.04-.83,2.32.37,1.29.83,1.29.83,0,.83-1.29"/>
    <polygon class="cls-14" points="27.63 37.99 26.37 37.99 26.3 31.55 27.7 31.55 27.63 37.99"/>
    <path class="cls-14" d="M27.63,37.95c0-.41-.28-.75-.63-.75s-.63.34-.63.75.28.75.63.75.63-.34.63-.75"/>
    <path class="cls-5" d="M27.29,17.71c0,.98-.66,1.78-1.47,1.78s-1.46-.79-1.46-1.78c0-.02,0-.04,0-.06h2.92s0,.04,0,.06"/>
    <path class="cls-9" d="M27.9,24.51h-4.34s-.9,4.34-.9,5.56h6.14c0-1.22-.9-5.56-.9-5.56"/>
    <path class="cls-3" d="M40.97,22.06c.3.38.84.44,1.22.14s.44-.84.14-1.22l-2.43-3.07c-.3-.38-.84-.44-1.22-.14-.38.3-.44.84-.14,1.22l2.43,3.07Z"/>
    <path class="cls-3" d="M30.41,22.07c-.3.38-.84.44-1.22.14-.38-.3-.44-.84-.14-1.22l2.43-3.07c.3-.38.84-.44,1.22-.14.38.3.44.84.14,1.22l-2.43,3.07Z"/>
    <path class="cls-8" d="M40.8,18.6l-.58-.71c-.42-.86-1.3-1.45-2.32-1.45h-4.35c-1.02,0-1.89.59-2.32,1.45l-.58.71c-.31.38-.25.94.12,1.25l.25.2c.38.31.94.25,1.25-.12l.63-.77v5.57h5.64v-5.57l.63.77c.31.38.87.43,1.25.12l.25-.2c.38-.31.44-.87.12-1.25"/>
    <path class="cls-3" d="M39.45,22.93c-.27.31-.23.78.08,1.05.31.27.78.23,1.05-.08l1.38-1.61c.27-.31.23-.78-.08-1.05-.31-.27-.78-.23-1.05.08l-1.38,1.61Z"/>
    <polygon class="cls-13" points="35.95 16.46 34.97 18.35 33.62 16.46 35.95 16.46"/>
    <polygon class="cls-13" points="35.55 16.45 36.69 18.35 38.05 16.46 35.55 16.45"/>
    <path class="cls-3" d="M31.93,22.94c.27.31.23.78-.08,1.05-.31.27-.78.23-1.05-.08l-1.38-1.61c-.27-.31-.23-.78.08-1.05.31-.27.78-.23,1.05.08l1.38,1.61Z"/>
    <polygon class="cls-6" points="38.57 23.84 32.87 23.84 32.87 24.74 32.87 27.58 32.87 39.25 35.03 39.25 35.43 27.58 35.98 27.58 36.39 39.25 38.55 39.25 38.55 27.58 38.57 27.58 38.57 23.84"/>
    <path class="cls-14" d="M31.38,23.56c.09-.4.48-.66.88-.57l.52.11c.4.09.66.48.57.88-.09.4-.48.65-.89.57l-.52-.11c-.4-.09-.66-.48-.57-.89"/>
    <path class="cls-14" d="M40,23.55c.09.4-.17.8-.57.88l-.52.11c-.4.09-.8-.17-.88-.57-.09-.4.17-.8.57-.88l.52-.11c.4-.09.8.17.88.57"/>
    <path class="cls-5" d="M36.75,16.43v-1.44c0-.09-.03-.17-.09-.24-.07-.08-.17-.13-.28-.13h-1.47c-.1,0-.2.04-.26.11-.06.07-.1.15-.1.26v1.44l1.18.42,1.03-.42Z"/>
    <path class="cls-14" d="M33.81,13.09c0,1.36.8,2.46,1.79,2.46s1.78-1.1,1.78-2.46c0-.29-.03-.56-.1-.82-.24-.96-.9-1.64-1.68-1.64s-1.44.68-1.68,1.64c-.07.26-.1.53-.1.82"/>
    <path class="cls-11" d="M36.55,11.55s-.92.38-2.12.53c-.23.03-.26,1.31-.47,2.16,0,0-.62-.79-.49-2.06.14-1.27.79-2.17,2.11-2.05,0,0,.44-.29,1.13-.09.69.21,1.86,2.88.41,4.31,0,0,.46-1.55-.58-2.81"/>
    <path class="cls-14" d="M34.16,13.62c0,.27-.12.49-.27.49s-.27-.22-.27-.49.12-.49.27-.49.27.22.27.49"/>
    <path class="cls-14" d="M37.56,13.62c0,.27-.12.49-.27.49s-.27-.22-.27-.49.12-.49.27-.49.27.22.27.49"/>
    <path class="cls-11" d="M34.24,12.27c.02-.06-.07.08-.47.84,0,0,.01.05.06.06.08.01.1.08.33.45,0,0-.11-.6.08-1.35"/>
    <path class="cls-16" d="M32.86,38.49h1.96c.27,0,.49.22.49.49v.42c0,.27-.22.49-.49.49h-1.96c-.27,0-.49-.22-.49-.49v-.42c0-.27.22-.49.49-.49Z"/>
    <path class="cls-16" d="M36.59,38.49h1.96c.27,0,.49.22.49.49v.42c0,.27-.22.49-.49.49h-1.96c-.27,0-.49-.22-.49-.49v-.42c0-.27.22-.49.49-.49Z"/>
    <path class="cls-3" d="M12.11,22.06c.3.38.84.44,1.22.14.38-.3.44-.84.14-1.22l-2.43-3.07c-.3-.38-.84-.44-1.22-.14-.38.3-.44.84-.14,1.22l2.43,3.07Z"/>
    <path class="cls-3" d="M1.55,22.07c-.3.38-.84.44-1.22.14-.38-.3-.44-.84-.14-1.22l2.43-3.07c.3-.38.84-.44,1.22-.14.38.3.44.84.14,1.22l-2.43,3.07Z"/>
    <path class="cls-12" d="M11.94,18.6l-.58-.71c-.42-.86-1.3-1.45-2.32-1.45h-4.35c-1.02,0-1.89.59-2.32,1.45l-.58.71c-.31.38-.26.94.12,1.25l.25.2c.38.31.94.25,1.25-.12l.63-.77v5.57h5.64v-5.57l.63.77c.31.38.87.43,1.25.12l.25-.2c.38-.31.44-.87.12-1.25"/>
    <path class="cls-3" d="M10.59,22.93c-.27.31-.23.78.08,1.05.31.27.78.23,1.05-.08l1.38-1.61c.27-.31.23-.78-.08-1.05-.31-.27-.78-.23-1.05.08l-1.38,1.61Z"/>
    <polygon class="cls-13" points="7.09 16.46 6.11 18.35 4.76 16.46 7.09 16.46"/>
    <polygon class="cls-13" points="6.69 16.45 7.83 18.35 9.18 16.46 6.69 16.45"/>
    <path class="cls-3" d="M3.07,22.94c.27.31.23.78-.08,1.05-.31.27-.78.23-1.05-.08l-1.38-1.61c-.27-.31-.23-.78.08-1.05.31-.27.78-.23,1.05.08l1.38,1.61Z"/>
    <polygon class="cls-6" points="9.71 23.84 4 23.84 4 24.74 4 27.58 4 39.25 6.17 39.25 6.57 27.58 7.12 27.58 7.52 39.25 9.68 39.25 9.68 27.58 9.71 27.58 9.71 23.84"/>
    <path class="cls-14" d="M2.52,23.56c.09-.4.48-.65.88-.57l.52.11c.4.09.66.48.57.88-.09.4-.48.65-.88.57l-.53-.11c-.4-.09-.65-.48-.57-.88"/>
    <path class="cls-14" d="M11.14,23.55c.09.4-.17.8-.57.88l-.53.11c-.4.09-.8-.17-.88-.57-.09-.4.17-.8.57-.88l.52-.11c.4-.09.8.17.88.57"/>
    <path class="cls-5" d="M7.89,16.43v-1.44c0-.09-.03-.17-.09-.24-.07-.08-.17-.13-.28-.13h-1.47c-.1,0-.2.04-.26.11-.07.07-.1.16-.1.26v1.44l1.18.42,1.03-.42Z"/>
    <path class="cls-16" d="M4,38.49h1.96c.27,0,.49.22.49.49v.42c0,.27-.22.49-.49.49h-1.96c-.27,0-.49-.22-.49-.49v-.42c0-.27.22-.49.49-.49Z"/>
    <path class="cls-16" d="M7.72,38.49h1.96c.27,0,.49.22.49.49v.42c0,.27-.22.49-.49.49h-1.96c-.27,0-.49-.22-.49-.49v-.42c0-.27.22-.49.49-.49Z"/>
    <path class="cls-14" d="M8.62,13.38c0,1.36-.8,2.46-1.78,2.46s-1.78-1.1-1.78-2.46c0-.29.04-.56.1-.81.24-.96.9-1.64,1.68-1.64s1.44.68,1.68,1.64c.07.26.1.53.1.81"/>
    <path class="cls-15" d="M5.88,11.36s.63.94,1.98,1.18c1.01.19.4,1.13.61,1.98,0,0,.63-.79.49-2.06-.14-1.27-.79-2.17-2.11-2.05,0,0-.44-.29-1.13-.09-.69.21-1.86,2.88-.41,4.31,0,0-.79-2.23.58-3.29"/>
    <path class="cls-14" d="M8.27,13.91c0,.27.12.49.27.49s.27-.22.27-.49-.12-.49-.27-.49-.27.22-.27.49"/>
    <path class="cls-14" d="M4.86,13.91c0,.27.12.49.27.49s.27-.22.27-.49-.12-.49-.27-.49-.27.22-.27.49"/>
    <path class="cls-15" d="M8.23,12.56c-.02-.06.07.08.47.84,0,0-.01.05-.06.06-.08.01-.1.08-.33.45,0,0,.11-.6-.08-1.35"/>
    <path class="cls-3" d="M20.96,11.92c.3.38.84.44,1.22.14.38-.3.44-.84.14-1.22l-2.43-3.07c-.3-.38-.84-.44-1.22-.14-.38.3-.44.84-.14,1.22l2.43,3.07Z"/>
    <path class="cls-3" d="M10.4,11.93c-.3.38-.85.44-1.22.14-.38-.3-.44-.84-.14-1.22l2.43-3.07c.3-.38.84-.44,1.22-.14.38.3.44.84.14,1.22l-2.43,3.07Z"/>
    <path class="cls-10" d="M20.79,8.46l-.58-.71c-.42-.86-1.3-1.45-2.32-1.45h-4.35c-1.02,0-1.89.59-2.32,1.45l-.58.71c-.31.38-.26.94.12,1.25l.25.2c.38.31.94.25,1.25-.12l.63-.77v5.57h5.64v-5.57l.63.77c.31.38.87.43,1.25.12l.25-.2c.38-.31.44-.87.12-1.25"/>
    <path class="cls-3" d="M19.44,12.79c-.27.31-.23.78.08,1.05.31.27.78.23,1.05-.08l1.38-1.61c.27-.31.23-.78-.08-1.05-.31-.27-.78-.23-1.05.08l-1.38,1.61Z"/>
    <path class="cls-3" d="M11.92,12.8c.27.31.23.78-.08,1.05-.31.27-.78.23-1.05-.08l-1.38-1.61c-.27-.31-.23-.78.08-1.05.31-.27.78-.23,1.05.08l1.38,1.61Z"/>
    <polygon class="cls-9" points="18.56 13.7 12.86 13.7 12.86 14.6 12.86 17.44 12.86 29.11 15.02 29.11 15.43 17.44 15.97 17.44 16.38 29.11 18.54 29.11 18.54 17.44 18.56 17.44 18.56 13.7"/>
    <path class="cls-14" d="M11.37,13.42c.09-.4.48-.66.89-.57l.52.11c.4.09.66.48.57.88-.09.4-.48.65-.88.57l-.53-.11c-.4-.09-.65-.48-.57-.88"/>
    <path class="cls-14" d="M20,13.4c.09.4-.17.8-.57.88l-.52.11c-.4.09-.8-.17-.88-.57-.09-.4.17-.8.57-.88l.52-.11c.4-.09.8.17.88.57"/>
    <rect class="cls-16" x="12.36" y="28.35" width="2.94" height="1.41" rx=".49" ry=".49"/>
    <rect class="cls-16" x="16.09" y="28.35" width="2.94" height="1.41" rx=".49" ry=".49"/>
    <path class="cls-16" d="M16.24,7.35c0,.11-.08.19-.18.19h-.73c-.1,0-.18-.09-.18-.19v-.45c0-.11.08-.19.18-.19h.73c.1,0,.18.09.18.19v.45Z"/>
    <polygon class="cls-16" points="15.46 7.49 14.95 11.32 15.67 12.16 16.42 11.32 15.84 7.49 15.46 7.49"/>
    <polygon class="cls-13" points="15.94 6.32 14.96 8.2 13.61 6.32 15.94 6.32"/>
    <polygon class="cls-13" points="15.55 6.31 16.69 8.2 18.04 6.32 15.55 6.31"/>
    <path class="cls-5" d="M16.74,6.29v-1.44c0-.09-.03-.18-.09-.24-.07-.08-.17-.13-.28-.13h-1.47c-.1,0-.2.04-.26.11-.07.07-.1.16-.1.26v1.44l1.18.42,1.03-.42Z"/>
    <path class="cls-14" d="M13.8,3.11c0,1.36.8,2.46,1.79,2.46s1.78-1.1,1.78-2.46c0-.29-.03-.56-.1-.81-.24-.96-.91-1.64-1.68-1.64s-1.44.68-1.68,1.64c-.07.26-.1.53-.1.81"/>
    <path class="cls-17" d="M16.54,1.1s-1.4.28-2.12,1.01c-.72.73-.26,1.31-.47,2.16,0,0-.62-.79-.49-2.06.14-1.27.79-2.17,2.11-2.05,0,0,.44-.29,1.13-.09.69.21,1.86,2.88.41,4.31,0,0,.79-2.23-.58-3.29"/>
    <path class="cls-14" d="M14.15,3.64c0,.27-.12.49-.27.49s-.27-.22-.27-.49.12-.49.27-.49.27.22.27.49"/>
    <path class="cls-14" d="M17.56,3.64c0,.27-.12.49-.27.49s-.27-.22-.27-.49.12-.49.27-.49.27.22.27.49"/>
    <path class="cls-17" d="M14.19,2.3c.02-.06-.07.08-.47.84,0,0,.01.05.06.06.08.01.1.08.33.45,0,0-.11-.6.08-1.35"/>
    <path class="cls-17" d="M14.43,2.1s-.1.26-.16.72c0,0-.23-.26-.21-.46.02-.2.37-.25.37-.25"/>
    <path class="cls-17" d="M16.54,1.1c-.07.02-1.05.68-1.45.77l.2-.54,1.25-.23Z"/>
  </g>
</svg>