<?xml version="1.0" encoding="UTF-8"?>
<svg id="Layer_1" data-name="Layer 1" xmlns="http://www.w3.org/2000/svg" xmlns:xlink="http://www.w3.org/1999/xlink" viewBox="0 0 46.17 43.79">
  <defs>
    <style>
      .cls-1 {
        clip-path: url(#clippath);
      }

      .cls-2 {
        fill: none;
      }

      .cls-2, .cls-3, .cls-4, .cls-5, .cls-6, .cls-7, .cls-8, .cls-9, .cls-10, .cls-11, .cls-12, .cls-13, .cls-14, .cls-15, .cls-16, .cls-17, .cls-18, .cls-19, .cls-20, .cls-21, .cls-22, .cls-23, .cls-24 {
        stroke-width: 0px;
      }

      .cls-3 {
        fill: #e6ecf1;
      }

      .cls-4 {
        fill: #6ea4ca;
      }

      .cls-5 {
        fill: #b3d59b;
      }

      .cls-6 {
        fill: #edc38f;
      }

      .cls-7 {
        fill: #957db9;
      }

      .cls-8 {
        fill: #5d2d13;
      }

      .cls-25 {
        clip-path: url(#clippath-1);
      }

      .cls-26 {
        clip-path: url(#clippath-4);
      }

      .cls-27 {
        clip-path: url(#clippath-3);
      }

      .cls-28 {
        clip-path: url(#clippath-2);
      }

      .cls-29 {
        clip-path: url(#clippath-7);
      }

      .cls-30 {
        clip-path: url(#clippath-6);
      }

      .cls-31 {
        clip-path: url(#clippath-5);
      }

      .cls-9 {
        fill: #6d3d1f;
      }

      .cls-10 {
        fill: #8e5d3e;
      }

      .cls-11 {
        fill: #f47836;
      }

      .cls-12 {
        fill: #e44e42;
      }

      .cls-13 {
        fill: #7ebce7;
      }

      .cls-14 {
        fill: #add1ef;
      }

      .cls-15 {
        fill: #3f2f2f;
      }

      .cls-16 {
        fill: #6f9e4d;
      }

      .cls-17 {
        fill: #9caab8;
      }

      .cls-18 {
        fill: #c96428;
      }

      .cls-19 {
        fill: #7e4d2e;
      }

      .cls-20 {
        fill: #b292c4;
      }

      .cls-21 {
        fill: #fff;
      }

      .cls-22 {
        fill: #fad099;
      }

      .cls-23 {
        fill: #1d2a38;
      }

      .cls-24 {
        fill: #9c603e;
      }
    </style>
    <clipPath id="clippath">
      <rect class="cls-2" x="0" y="1.08" width="42.52" height="42.71"/>
    </clipPath>
    <clipPath id="clippath-1">
      <rect class="cls-2" x="0" y="-3.24" width="46.17" height="47.04"/>
    </clipPath>
    <clipPath id="clippath-2">
      <rect class="cls-2" x="0" y="1.08" width="42.52" height="42.71"/>
    </clipPath>
    <clipPath id="clippath-3">
      <rect class="cls-2" x="0" y="-3.24" width="46.17" height="47.04"/>
    </clipPath>
    <clipPath id="clippath-4">
      <rect class="cls-2" x="0" y="1.08" width="42.52" height="42.71"/>
    </clipPath>
    <clipPath id="clippath-5">
      <rect class="cls-2" x="0" y="-3.24" width="46.17" height="47.04"/>
    </clipPath>
    <clipPath id="clippath-6">
      <rect class="cls-2" x="0" y="1.08" width="42.52" height="42.71"/>
    </clipPath>
    <clipPath id="clippath-7">
      <rect class="cls-2" x="0" y="-3.24" width="46.17" height="47.04"/>
    </clipPath>
  </defs>
  <polygon class="cls-7" points="14.1 20.74 5.91 20.74 5.91 22.03 5.91 26.11 5.91 42.87 9.01 42.87 9.6 26.11 10.38 26.11 10.97 42.87 14.07 42.87 14.07 26.11 14.1 26.11 14.1 20.74"/>
  <g class="cls-1">
    <path class="cls-13" d="M2.7,18.16c-.52.65-1.47.76-2.12.25-.66-.52-.77-1.47-.25-2.12l3.5-4.61c.52-.66,2.2-1.51,2.85-.99.66.52.77,1.47.25,2.12l-4.23,5.35Z"/>
  </g>
  <g class="cls-25">
    <path class="cls-13" d="M17.29,13.22l-.83-1.01c-.61-1.23-1.86-2.08-3.33-2.08h-6.25c-1.46,0-2.72.85-3.32,2.08l-.83,1.01c-.45.54-.37,1.35.18,1.79l.36.29c.54.44,1.35.37,1.79-.18l.79,4.81-.54,7.31h9.41l-.38-7.35.63-4.76c.44.55,1.25.62,1.79.18l.36-.29c.54-.45.62-1.25.18-1.79"/>
    <path class="cls-13" d="M5.3,19.07c.53.46.57,1.26.11,1.78-.46.52-1.26.57-1.78.11l-2.7-2.38c-.52-.46-.57-1.26-.11-1.78.46-.52,1.26-.57,1.78-.11l2.7,2.38Z"/>
    <path class="cls-13" d="M17.78,18.63c.52.65,1.47.76,2.12.25.66-.52.77-1.47.25-2.12l-4.1-5.18c-.52-.66-1.6-.93-2.26-.41-.66.52-.77,1.47-.25,2.12l4.23,5.35Z"/>
    <path class="cls-13" d="M17.85,21.9c.03.79.7,1.39,1.48,1.36.78-.03,1.39-.7,1.36-1.49l-.18-4.05c-.03-.79-.7-1.39-1.48-1.36-.79.04-1.4.7-1.36,1.49l.18,4.05Z"/>
    <path class="cls-22" d="M4.31,20.65c.13-.58.69-.94,1.27-.82l.75.16c.58.12.94.69.82,1.27-.12.58-.69.94-1.27.82l-.75-.16c-.57-.13-.94-.69-.82-1.27"/>
    <rect class="cls-23" x="5.38" y="41.77" width="4.23" height="2.02" rx=".71" ry=".71"/>
    <path class="cls-23" d="M11.44,41.77h2.81c.39,0,.71.32.71.71v.61c0,.39-.32.71-.71.71h-2.81c-.39,0-.71-.32-.71-.71v-.61c0-.39.32-.71.71-.71Z"/>
    <polygon class="cls-14" points="7.86 10.17 10.31 23.79 12.02 10.14 7.86 10.17"/>
    <path class="cls-18" d="M10.79,11.76c0,.13-.09.23-.2.23h-.81c-.11,0-.2-.1-.2-.23v-.53c0-.13.09-.23.2-.23h.81c.11,0,.2.1.2.23v.53Z"/>
    <polygon class="cls-13" points="10.04 11 9.1 12.82 7.91 10.14 8.42 10.11 10.04 11"/>
    <polygon class="cls-13" points="10.04 11 10.81 12.82 12.02 10.14 11.59 10.11 10.04 11"/>
    <polygon class="cls-18" points="9.93 11.92 9.36 18.79 10.22 20.59 10.99 18.79 10.35 11.92 9.93 11.92"/>
    <polygon class="cls-4" points="6.03 13.47 6.04 13.47 10.31 23.79 7.86 10.17 6.96 10.77 6.04 13.46 6.03 13.47"/>
    <polygon class="cls-4" points="13.98 13.36 13.97 13.36 10.31 23.79 12.02 10.14 12.95 10.71 13.97 13.36 13.98 13.36"/>
    <path class="cls-6" d="M11.59,10.11v-2.07c0-.13-.05-.25-.13-.34-.1-.11-.24-.18-.4-.18h-2.11c-.15,0-.28.06-.38.16-.09.1-.15.22-.15.37v2.07l1.62.89,1.55-.89Z"/>
  </g>
  <g class="cls-28">
    <path class="cls-22" d="M7.37,5.55c0,1.95,1.15,3.53,2.57,3.53s2.56-1.58,2.56-3.53c0-.41-.05-.8-.15-1.17-.35-1.38-1.3-2.36-2.41-2.36s-2.07.98-2.42,2.36c-.1.37-.15.76-.15,1.17"/>
    <path class="cls-15" d="M11.31,2.66s-2.01.4-3.04,1.45c-1.03,1.05-.38,1.88-.67,3.11,0,0-.9-1.14-.7-2.96.2-1.82,1.13-3.11,3.03-2.94,0,0,.63-.42,1.62-.12,1,.3,2.67,4.14.59,6.19,0,0,1.13-3.2-.84-4.72"/>
  </g>
  <g class="cls-27">
    <path class="cls-22" d="M7.87,6.31c0,.39-.17.7-.39.7s-.39-.31-.39-.7.17-.7.39-.7.39.31.39.7"/>
    <path class="cls-22" d="M12.76,6.31c0,.39-.17.7-.39.7s-.39-.31-.39-.7.17-.7.39-.7.39.31.39.7"/>
    <path class="cls-15" d="M7.93,4.38c.02-.09-.1.12-.67,1.2,0,0,.02.07.09.08.11.02.14.12.47.65,0,0-.16-.86.11-1.93"/>
    <path class="cls-15" d="M8.27,4.1s-.15.37-.23,1.03c0,0-.33-.38-.3-.67.03-.29.53-.36.53-.36"/>
    <path class="cls-15" d="M11.31,2.66c-.1.02-1.51.98-2.08,1.11l.28-.78,1.8-.33Z"/>
    <path class="cls-8" d="M23.94,30.95c0,.24-.19.71-.43.71h-10.02c-.24,0-.44-.47-.44-.71l.41-5.86c0-.24.2-.44.44-.44h9.2c.24,0,.44.2.44.44l.41,5.86Z"/>
    <path class="cls-19" d="M13.9,24.65h9.2c.24,0,.44.2.44.44v6.14c0,.24-.19.43-.43.43h-9.2c-.24,0-.43-.19-.43-.43v-6.14c0-.24.19-.43.43-.43Z"/>
    <path class="cls-9" d="M19.91,25.7h-2.83c-.39,0-.71-.32-.71-.71v-.89c0-.39.32-.71.71-.71h2.83c.39,0,.71.32.71.71v.89c0,.39-.32.71-.71.71M17.08,23.94c-.09,0-.16.07-.16.16v.89c0,.09.07.16.16.16h2.83c.09,0,.16-.07.16-.16v-.89c0-.09-.07-.16-.16-.16h-2.83Z"/>
    <path class="cls-10" d="M13.9,24.65h9.2c.24,0,.44.2.44.44v2.86c0,.24-.19.43-.43.43h-9.2c-.24,0-.43-.19-.43-.43v-2.86c0-.24.19-.43.43-.43Z"/>
    <path class="cls-17" d="M19.31,28.48c0,.18-.15.33-.33.33h-.97c-.18,0-.33-.15-.33-.33s.15-.33.33-.33h.97c.18,0,.33.15.33.33"/>
    <path class="cls-21" d="M18.21,28.28h.83c.08,0,.14.06.14.14v.05c0,.08-.06.14-.14.14h-.83c-.08,0-.14-.06-.14-.14v-.05c0-.08.06-.14.14-.14Z"/>
    <path class="cls-22" d="M17.62,24.13c-.4-.43-.37-1.11.06-1.51l.57-.52c.43-.4,1.11-.38,1.51.06.4.43.37,1.11-.06,1.51l-.56.52c-.43.4-1.11.37-1.51-.06"/>
    <polygon class="cls-11" points="35.93 20.74 27.74 20.74 27.74 22.03 27.74 26.11 27.74 42.87 30.84 42.87 31.43 26.11 32.21 26.11 32.8 42.87 35.9 42.87 35.9 26.11 35.93 26.11 35.93 20.74"/>
    <path class="cls-20" d="M24.53,18.16c-.52.65-1.47.76-2.12.25-.66-.52-.77-1.47-.25-2.12l3.5-4.61c.52-.66,2.2-1.51,2.86-.99.66.52.77,1.47.25,2.12l-4.23,5.35Z"/>
    <path class="cls-20" d="M39.12,13.22l-.83-1.01c-.61-1.23-1.86-2.08-3.33-2.08h-6.25c-1.47,0-2.72.85-3.33,2.08l-.83,1.01c-.45.54-.37,1.35.18,1.79l.36.29c.54.44,1.35.37,1.79-.18l.79,4.81-.54,7.31h9.41l-.38-7.35.63-4.76c.45.55,1.25.62,1.79.18l.36-.29c.54-.45.62-1.25.18-1.79"/>
    <path class="cls-20" d="M27.13,19.07c.52.46.57,1.26.11,1.78-.46.52-1.26.57-1.78.11l-2.7-2.38c-.52-.46-.57-1.26-.11-1.78.46-.52,1.26-.57,1.78-.11l2.7,2.38Z"/>
  </g>
  <g class="cls-26">
    <path class="cls-20" d="M39.61,18.63c.52.65,1.47.76,2.12.25.66-.52.77-1.47.25-2.12l-4.1-5.18c-.52-.66-1.6-.93-2.26-.41-.65.52-.77,1.47-.25,2.12l4.23,5.35Z"/>
    <path class="cls-20" d="M39.68,21.9c.03.79.7,1.39,1.48,1.36.78-.03,1.39-.7,1.36-1.49l-.18-4.05c-.03-.79-.7-1.39-1.48-1.36-.79.04-1.39.7-1.36,1.49l.18,4.05Z"/>
  </g>
  <g class="cls-31">
    <path class="cls-22" d="M26.14,20.65c.13-.58.69-.94,1.27-.82l.75.16c.58.12.94.69.82,1.27-.12.58-.69.94-1.27.82l-.75-.16c-.58-.13-.94-.69-.82-1.27"/>
    <path class="cls-11" d="M27.92,41.77h2.81c.39,0,.71.32.71.71v.61c0,.39-.32.71-.71.71h-2.81c-.39,0-.71-.32-.71-.71v-.61c0-.39.32-.71.71-.71Z"/>
    <path class="cls-11" d="M33.27,41.77h2.81c.39,0,.71.32.71.71v.61c0,.39-.32.71-.71.71h-2.81c-.39,0-.71-.32-.71-.71v-.61c0-.39.32-.71.71-.71Z"/>
    <polygon class="cls-21" points="29.69 10.17 32.15 23.79 33.86 10.14 29.69 10.17"/>
    <path class="cls-11" d="M32.45,11.76c0,.13-.09.23-.2.23h-.81c-.11,0-.2-.1-.2-.23v-.53c0-.13.09-.23.2-.23h.81c.11,0,.2.1.2.23v.53Z"/>
    <polygon class="cls-3" points="31.87 11 30.93 12.82 29.74 10.14 30.25 10.11 31.87 11"/>
    <polygon class="cls-3" points="31.87 11 32.64 12.82 33.85 10.14 33.42 10.11 31.87 11"/>
    <polygon class="cls-11" points="31.62 11.92 30.9 18.69 32.09 20.59 33.04 18.57 32.04 11.92 31.62 11.92"/>
    <polygon class="cls-7" points="27.87 13.47 27.87 13.47 32.14 23.79 29.69 10.17 28.79 10.77 27.87 13.46 27.87 13.47"/>
    <polygon class="cls-7" points="35.81 13.36 35.8 13.36 32.14 23.79 33.85 10.14 34.78 10.71 35.8 13.36 35.81 13.36"/>
    <path class="cls-6" d="M33.42,10.11v-2.07c0-.13-.05-.25-.13-.34-.1-.11-.24-.18-.4-.18h-2.11c-.15,0-.28.06-.38.16-.09.1-.15.22-.15.37v2.07l1.62.89,1.55-.89Z"/>
  </g>
  <g class="cls-30">
    <path class="cls-22" d="M29.2,5.55c0,1.95,1.15,3.53,2.57,3.53s2.56-1.58,2.56-3.53c0-.41-.05-.8-.15-1.17-.35-1.38-1.3-2.36-2.41-2.36s-2.07.98-2.42,2.36c-.1.37-.15.76-.15,1.17"/>
    <path class="cls-24" d="M33.14,2.66s-2.01.4-3.04,1.45c-1.03,1.05-.38,1.88-.67,3.11,0,0-.9-1.14-.7-2.96.2-1.82,1.13-3.11,3.03-2.94,0,0,.63-.42,1.63-.12,1,.3,2.67,4.14.59,6.19,0,0,1.13-3.2-.84-4.72"/>
  </g>
  <g class="cls-29">
    <path class="cls-22" d="M29.71,6.31c0,.39-.17.7-.39.7s-.39-.31-.39-.7.17-.7.39-.7.39.31.39.7"/>
    <path class="cls-22" d="M34.59,6.31c0,.39-.17.7-.39.7s-.39-.31-.39-.7.17-.7.39-.7.39.31.39.7"/>
    <path class="cls-24" d="M29.76,4.38c.02-.09-.1.12-.67,1.2,0,0,.02.07.09.08.11.02.14.12.47.65,0,0-.16-.86.11-1.93"/>
    <path class="cls-24" d="M30.1,4.1s-.15.37-.23,1.03c0,0-.33-.38-.3-.67.03-.29.53-.36.53-.36"/>
    <path class="cls-24" d="M33.14,2.66c-.1.02-1.51.98-2.08,1.11l.28-.78,1.79-.33Z"/>
    <path class="cls-21" d="M36.58,42.49c0,.11-.09.2-.2.2h-1.77c-.11,0-.2-.09-.2-.2s.09-.2.2-.2h1.77c.11,0,.2.09.2.2"/>
    <path class="cls-21" d="M30.92,42.49c0,.11-.09.2-.2.2h-1.77c-.11,0-.2-.09-.2-.2s.09-.2.2-.2h1.77c.11,0,.2.09.2.2"/>
    <path class="cls-5" d="M39.41,28.84l-2.85-.76s-.04-.03-.03-.06l1.67-6.24s.03-.04.06-.03l2.85.76s.04.03.03.06l-1.67,6.24s-.03.04-.06.03"/>
    <path class="cls-16" d="M39.33,26.29c.28-.13.51-.38.59-.7.09-.32.02-.65-.16-.91-.14-.2-.35-.36-.61-.42-.58-.15-1.18.19-1.33.77-.15.58.19,1.17.77,1.33.26.07.51.04.74-.06"/>
    <path class="cls-5" d="M38.93,25.45l.1-.06c.08-.04.15-.06.21-.04.05.01.06.03.07.03,0,0,0,.01,0,.04,0,0,0,.01-.03.02-.02,0-.06,0-.14-.02l-.08-.02s-.05,0-.06.04l-.04.15s0,.05.03.06l.06.02c.19.05.33.04.4-.03.02-.01.03-.03.04-.05l.15.04s.05,0,.06-.03l.03-.1s0-.05-.03-.06l-.14-.04c0-.11-.04-.24-.26-.29-.13-.03-.26-.01-.4.07,0,0-.02.01-.05.03-.03.02-.04.03-.05.03-.09.05-.16.07-.23.05-.06-.02-.08-.03-.08-.04,0,0,0-.01,0-.03,0-.03.07-.03.17,0l.09.02s.05,0,.06-.03l.04-.15s0-.05-.03-.06l-.09-.02c-.13-.04-.23-.04-.3,0-.06.03-.1.06-.13.12l-.15-.04s-.05.01-.06.04l-.03.1s.01.05.03.06l.15.04c0,.1.06.22.26.28.14.04.28.01.43-.08"/>
    <path class="cls-16" d="M37.83,24.21c.08-.32.31-.58.61-.72.02,0,.03-.02.03-.04l.07-.26s.05.02.08.03c.3.08.62-.1.7-.4.02-.06.02-.12.02-.18l.38.1c-.03.05-.06.11-.08.17-.08.31.1.62.4.7.03,0,.06.01.09.01l-.07.25s0,.04,0,.05c.19.27.25.61.17.93,0,.03.01.07.04.07.03,0,.07-.01.07-.04l.56-2.1c.02-.07-.02-.13-.09-.15l-.14-.04-.15-.04-1.83-.49-.09-.02-.2-.05c-.07-.02-.13.02-.15.09l-.56,2.1s.01.07.04.07c.03,0,.07-.01.07-.04"/>
    <path class="cls-16" d="M39.38,28.56l.56-2.1s-.01-.07-.04-.08c-.03,0-.07.01-.08.04-.08.32-.31.58-.6.72-.02,0-.03.02-.03.04l-.07.26s-.05-.02-.08-.03c-.3-.08-.62.1-.7.4-.02.06-.02.12-.02.18l-.38-.1c.03-.05.06-.11.08-.17.08-.31-.1-.62-.4-.7-.03,0-.06-.01-.09-.02l.07-.26s0-.04,0-.05c-.19-.27-.25-.61-.17-.93,0-.03-.01-.07-.04-.07-.03,0-.07.01-.08.04l-.56,2.1c-.02.07.02.13.09.15l.2.05.09.02,1.83.49.15.04.14.04c.07.02.13-.02.15-.09"/>
    <path class="cls-5" d="M36.17,27.26l-1.48-2.55s0-.05.02-.07l5.59-3.23s.05,0,.07.02l1.48,2.56s0,.05-.02.07l-5.59,3.23s-.05,0-.07-.02"/>
    <path class="cls-16" d="M37.92,25.4c.29.11.63.09.92-.08.29-.17.47-.45.53-.75.04-.24,0-.5-.13-.73-.3-.52-.97-.7-1.48-.39-.52.3-.7.96-.4,1.48.13.23.34.39.57.48"/>
    <path class="cls-5" d="M38.22,24.52l.12.03c.09.02.15.06.18.12.03.04.03.07.03.07,0,0,0,.02-.02.03,0,0-.01,0-.03,0-.02-.01-.04-.04-.08-.11l-.04-.07s-.04-.03-.07-.02l-.14.08s-.03.04-.02.07l.03.05c.1.17.2.26.31.26.02,0,.04,0,.06,0l.08.13s.04.03.07.02l.09-.05s.03-.04.02-.07l-.07-.13c.08-.07.13-.2.02-.39-.07-.12-.18-.19-.33-.23,0,0-.03,0-.06-.01-.04,0-.05-.01-.05-.01-.1-.02-.16-.07-.2-.13-.03-.06-.03-.08-.03-.09,0,0,0-.01.02-.03.02-.01.07.03.12.11l.05.08s.04.03.07.02l.14-.08s.03-.04.02-.07l-.05-.08c-.07-.12-.13-.19-.2-.21-.06-.02-.12-.03-.18-.01l-.08-.13s-.04-.03-.07-.02l-.09.05s-.03.04-.02.07l.08.13c-.07.07-.12.19,0,.38.07.12.19.21.36.25"/>
    <path class="cls-16" d="M38.33,22.87c.29-.16.63-.2.94-.08.02,0,.03,0,.05,0l.23-.13s.02.05.04.08c.16.27.51.37.78.21.05-.03.1-.07.14-.12l.2.34c-.06.01-.12.03-.17.06-.27.16-.37.51-.21.78.01.03.03.05.05.07l-.23.13s-.03.03-.03.04c-.06.33-.25.61-.54.77-.03.02-.04.06-.02.08.02.03.05.04.08.02l1.88-1.09c.06-.04.08-.11.04-.17l-.07-.13-.08-.13-.95-1.64-.05-.08-.1-.18c-.03-.06-.11-.08-.17-.05l-1.88,1.09s-.04.05-.02.08c.01.03.05.04.08.02"/>
    <path class="cls-16" d="M36.34,27.04l1.88-1.09s.04-.05.02-.08c-.02-.03-.05-.04-.08-.02-.29.17-.63.19-.94.08-.02,0-.04,0-.05,0l-.23.13s-.02-.05-.04-.08c-.16-.27-.51-.37-.78-.21-.05.03-.1.07-.14.12l-.2-.34c.06-.01.12-.03.17-.06.27-.16.37-.51.21-.78-.01-.03-.03-.05-.05-.07l.23-.13s.03-.02.03-.04c.06-.33.25-.61.54-.77.03-.02.04-.05.02-.08-.02-.03-.05-.04-.08-.02l-1.88,1.09c-.06.03-.08.11-.05.17l.1.18.05.08.95,1.64.08.13.07.12c.03.06.11.08.17.05"/>
    <path class="cls-5" d="M33.42,23l.76-2.85s.03-.04.06-.03l6.24,1.67s.04.03.03.06l-.76,2.85s-.03.04-.06.03l-6.24-1.67s-.04-.03-.03-.06"/>
    <path class="cls-16" d="M35.97,22.92c.13.28.38.51.7.59.32.09.65.02.91-.16.2-.14.35-.35.42-.61.15-.58-.19-1.17-.77-1.33-.58-.15-1.17.19-1.33.77-.07.26-.04.52.06.74"/>
    <path class="cls-5" d="M36.81,22.51l.06.1c.04.08.06.15.04.21-.01.05-.03.06-.03.07,0,0-.01,0-.04,0,0,0-.01,0-.02-.03,0-.02,0-.06.02-.14l.02-.08s0-.05-.03-.06l-.15-.04s-.05,0-.06.04l-.02.06c-.05.19-.04.32.03.4.01.01.03.03.05.04l-.04.15s0,.05.03.06l.1.03s.05,0,.06-.03l.04-.14c.11,0,.24-.05.29-.26.03-.13.01-.26-.07-.4,0,0-.01-.02-.03-.05-.02-.03-.03-.04-.03-.05-.05-.09-.07-.16-.05-.23.02-.06.03-.08.04-.08,0,0,0-.01.03,0,.03,0,.03.07,0,.16l-.02.09s0,.05.03.06l.15.04s.05,0,.06-.04l.02-.09c.03-.13.04-.23,0-.3-.02-.06-.06-.1-.12-.13l.04-.15s0-.05-.03-.06l-.1-.02s-.05,0-.06.03l-.04.15c-.1,0-.22.06-.28.26-.04.14-.01.28.08.43"/>
    <path class="cls-16" d="M38.06,21.42c.32.09.58.3.72.61,0,.02.02.03.04.03l.25.07s-.02.05-.03.08c-.08.3.1.62.4.7.06.02.12.02.18.02l-.1.38s-.11-.06-.17-.08c-.3-.08-.62.1-.7.4,0,.03-.01.06-.01.09l-.26-.07s-.04,0-.05.01c-.27.19-.61.25-.93.16-.03,0-.07.01-.08.04,0,.03.01.07.04.07l2.1.56c.07.02.13-.02.15-.09l.04-.14.04-.15.49-1.83.02-.09.05-.2c.02-.07-.02-.13-.09-.15l-2.1-.56s-.07.01-.07.04c0,.03,0,.07.04.07"/>
    <path class="cls-16" d="M33.7,22.96l2.1.56s.06,0,.07-.04c0-.03-.01-.07-.04-.07-.32-.09-.58-.31-.72-.6,0-.02-.02-.03-.04-.03l-.26-.07s.02-.05.03-.08c.08-.3-.1-.62-.4-.7-.06-.02-.12-.02-.18-.02l.1-.38s.11.06.17.08c.3.08.62-.1.7-.4,0-.03.01-.06.02-.09l.26.07s.03,0,.05,0c.27-.19.61-.25.93-.17.03,0,.07-.01.08-.04,0-.03-.01-.07-.04-.07l-2.1-.56c-.07-.02-.13.02-.15.09l-.05.2-.02.09-.49,1.83-.04.15-.04.14c-.02.06.02.13.09.15"/>
    <path class="cls-22" d="M39.45,24.13c-.4-.43-.37-1.11.06-1.51l.57-.52c.43-.4,1.11-.38,1.51.06.4.43.37,1.11-.06,1.51l-.57.52c-.43.4-1.11.37-1.51-.06"/>
    <rect class="cls-12" x="19" y="20.19" width="8.02" height="1.3"/>
    <polygon class="cls-12" points="26.45 22.78 29.83 20.83 26.45 18.88 26.45 22.78"/>
  </g>
</svg>