<?xml version="1.0" encoding="UTF-8"?>
<svg id="Layer_1" data-name="Layer 1" xmlns="http://www.w3.org/2000/svg" xmlns:xlink="http://www.w3.org/1999/xlink" viewBox="0 0 25.7 34.33">
  <defs>
    <style>
      .cls-1 {
        fill: #bfaf84;
      }

      .cls-1, .cls-2, .cls-3, .cls-4, .cls-5, .cls-6, .cls-7, .cls-8, .cls-9, .cls-10, .cls-11, .cls-12, .cls-13 {
        stroke-width: 0px;
      }

      .cls-14 {
        clip-path: url(#clippath);
      }

      .cls-2 {
        fill: none;
      }

      .cls-3 {
        fill: #6ea4ca;
      }

      .cls-4 {
        fill: #edc38f;
      }

      .cls-5 {
        fill: #957db9;
      }

      .cls-6 {
        fill: #42bfb5;
      }

      .cls-15 {
        clip-path: url(#clippath-1);
      }

      .cls-16 {
        clip-path: url(#clippath-4);
      }

      .cls-17 {
        clip-path: url(#clippath-3);
      }

      .cls-18 {
        clip-path: url(#clippath-2);
      }

      .cls-19 {
        clip-path: url(#clippath-7);
      }

      .cls-20 {
        clip-path: url(#clippath-6);
      }

      .cls-21 {
        clip-path: url(#clippath-5);
      }

      .cls-7 {
        fill: #7ebce7;
      }

      .cls-8 {
        fill: #efede0;
      }

      .cls-9 {
        fill: #3f2f2f;
      }

      .cls-10 {
        fill: #776395;
      }

      .cls-11 {
        fill: #fad099;
      }

      .cls-12 {
        fill: #1d2a38;
      }

      .cls-13 {
        fill: #9c603e;
      }
    </style>
    <clipPath id="clippath">
      <rect class="cls-2" x="0" width="25.4" height="33.55"/>
    </clipPath>
    <clipPath id="clippath-1">
      <rect class="cls-2" x="0" y="-5.64" width="55.83" height="39.19"/>
    </clipPath>
    <clipPath id="clippath-2">
      <rect class="cls-2" x="0" width="25.4" height="33.55"/>
    </clipPath>
    <clipPath id="clippath-3">
      <rect class="cls-2" x="0" y="-5.64" width="55.83" height="39.19"/>
    </clipPath>
    <clipPath id="clippath-4">
      <rect class="cls-2" x="0" width="25.4" height="33.55"/>
    </clipPath>
    <clipPath id="clippath-5">
      <rect class="cls-2" x="0" y="-5.64" width="55.83" height="39.19"/>
    </clipPath>
    <clipPath id="clippath-6">
      <rect class="cls-2" x="0" width="25.4" height="33.55"/>
    </clipPath>
    <clipPath id="clippath-7">
      <rect class="cls-2" x="0" y="-5.64" width="55.83" height="39.19"/>
    </clipPath>
  </defs>
  <g class="cls-14">
    <path class="cls-12" d="M22.75,31.98c.83-.1,1.08,1.95.24,2.04-.75.09-1.51.18-2.26.26-.32.04-.76.13-.93-.23-.23-.49.34-.96.66-1.24.71-.62,1.38-.73,2.29-.84"/>
  </g>
  <g class="cls-15">
    <path class="cls-12" d="M21.25,30.96c.83-.1,1.08,1.95.24,2.04-.75.09-1.5.18-2.26.26-.32.04-.76.13-.93-.23-.24-.49.35-.96.66-1.24.71-.62,1.38-.74,2.29-.84"/>
    <rect class="cls-4" x="20.34" y="5.23" width="2.08" height="2.76"/>
    <polygon class="cls-8" points="21.76 7.07 22.98 7.23 21.16 9.22 19.68 8.97 19.9 7.07 20.94 6.97 21.76 7.07"/>
    <path class="cls-3" d="M18.5,31.98v-15.29c0-.85.73-1.55,1.63-1.55s1.63.7,1.63,1.55v15.29h-3.26Z"/>
    <path class="cls-7" d="M20.56,32.54v-14.05c0-.85.73-1.54,1.63-1.54s1.63.69,1.63.94v14.05l-3.26.61Z"/>
    <path class="cls-3" d="M19.68,10.07c-.63-.35-.48-2.91-.85-2.31l-2.83,5.41-2.6,1.74,1.35,2.14c1.02-.69,2.54-1.72,2.62-1.85,0,0,2.93-4.79,2.31-5.13"/>
    <path class="cls-7" d="M17.68,12.57l1.15-4.81,1.07-.69c.07-.02.33,3.79.33,3.79l2.11-3.19s.58-.48.64-.45l2.2,1.99-.77,13.34-2.45-.23-4.28-1.89v-7.87Z"/>
    <path class="cls-3" d="M25.4,9.91c0-.67-.54-1.21-1.21-1.21s-1.21.54-1.21,1.21v10.79h2.42v-10.79Z"/>
    <path class="cls-4" d="M22.98,20.7v.65c0,.66.54,1.2,1.21,1.2s1.21-.54,1.21-1.2v-.65h-2.42Z"/>
  </g>
  <g class="cls-18">
    <path class="cls-11" d="M20.28,6.35h-.02c-1.14-.3-1.57-1.55-1.61-3.01,0-.03.05-.74.13-1.05.3-1.11,1.62-1.73,2.95-1.39h.02c1.33.34,2.17,1.51,1.87,2.62-.08.3-.4.95-.42.99-.77,1.26-1.78,2.15-2.92,1.86"/>
    <path class="cls-13" d="M19.06,1.93s.12-.15.3,0c.18.15.12.21.54.3.43.09,1.82-.02,2.18.16.35.18.13.46.27,1.01.14.54.23.47.57.07.36-.39.64.74-.17,1.46-.21.19-.42.44-.12.33.3-.12,1.94-1.7,1.06-3.51-.89-1.8-2.87-1.44-3.39-1.35-1.07.2-1.87,2-1.23,1.52"/>
  </g>
  <g class="cls-17">
    <rect class="cls-4" x="2.78" y="4.91" width="2.08" height="2.75"/>
  </g>
  <g class="cls-16">
    <path class="cls-11" d="M4.92,6.03h.02c1.14-.29,1.58-1.55,1.61-3.01,0-.04-.05-.75-.13-1.06-.3-1.11-1.61-1.73-2.95-1.4h-.02c-1.33.34-2.16,1.51-1.87,2.62.08.3.4.96.41.99.77,1.25,1.78,2.15,2.92,1.85"/>
    <path class="cls-9" d="M6.32,1.69s-.42-.25-.6-.1c-.17.15-.25,1.44-.68,1.53-.43.09-.02-.32-.54-.32-.4,0-.74.46-.59,1,.25.87.56.2.72.56.17.38-.7,1.45-1.12,1.42-1.37-.07-1.23-.58-1.74-1.14-.22-.23-1.12-1.41-.24-3.21C2.41-.35,4.4,0,4.91.09c1.07.2,2.05,2.08,1.41,1.6"/>
  </g>
  <g class="cls-21">
    <polygon class="cls-6" points="21.54 7.38 20.94 6.96 20.34 7.07 20.56 7.98 19.9 9.22 20.23 10.86 21.38 9.57 20.84 8.03 21.54 7.38"/>
    <polygon class="cls-8" points="20.94 6.96 22.42 6.4 22.98 7.22 21.38 7.99 20.94 6.96"/>
    <polygon class="cls-8" points="20.34 6.61 20.94 6.97 20.23 7.76 19.9 7.07 20.34 6.61"/>
    <path class="cls-3" d="M22.87,7.07s-.77.59-1.73,1.79c-1.07,1.33-.91,2.01-.91,2.01l1.38-1.05-.18-.32h.53s1.5-1.82,1.5-1.82l-.59-.6Z"/>
    <polygon class="cls-3" points="19.9 7.07 20.23 10.86 19.49 9.39 19.74 9.22 19.49 9.07 19.4 7.39 19.9 7.07"/>
    <path class="cls-1" d="M12.53,15.5c-.63.34-.85,1.1-.49,1.71.24.41.69.63,1.14.63.22,0,.45-.05.65-.16,0,0,.4-.26.93-.63l-1.35-2.14-.88.59Z"/>
    <path class="cls-12" d="M1.6,30.73c-.84.1-.59,2.17.26,2.07.75-.09,1.51-.18,2.27-.27.32-.04.77-.05.86-.45.11-.54-.56-.86-.94-1.06-.84-.44-1.53-.4-2.44-.29"/>
    <path class="cls-12" d="M3.06,31.92c-.84.1-.6,2.17.25,2.07.76-.09,1.52-.18,2.27-.27.32-.04.77-.05.86-.45.11-.54-.56-.86-.95-1.06-.84-.44-1.53-.4-2.43-.29"/>
    <path class="cls-10" d="M.79,31.57v-15.47c0-.86.73-1.57,1.64-1.57s1.64.7,1.64,1.57v15.47H.79Z"/>
  </g>
  <g class="cls-20">
    <path class="cls-5" d="M2.86,32.14v-14.22c0-.86.73-1.56,1.64-1.56s1.64.7,1.64,1.56v14.22h-3.28Z"/>
    <path class="cls-5" d="M.51,8.72c.21-.73,1.89-2.63,1.91-2.63,0,0,2.37.64,2.44.67l2.61,3.48-.96,12.09h-3.09L.09,20.29s-.39-8.8.42-11.57"/>
  </g>
  <g class="cls-19">
    <path class="cls-10" d="M9.11,13.53l-2.12-4.31c-.33-.62-1.12-.86-1.77-.55-.64.31-.9,1.07-.57,1.68l2.34,4.72c.14.26.37.46.64.58l4.15,1.73.97-2.33-3.64-1.51Z"/>
    <path class="cls-4" d="M13.7,15.44l-.95-.4-.97,2.33.87.36c.17.07.35.11.52.11.51,0,.99-.28,1.21-.76.29-.63-.02-1.37-.68-1.64"/>
    <polygon class="cls-10" points="1.59 7.07 4.04 7.53 6.21 8.53 4.87 6.76 2.43 6.08 1.59 7.07"/>
  </g>
</svg>