<?xml version="1.0" encoding="UTF-8"?>
<svg id="Layer_1" data-name="Layer 1" xmlns="http://www.w3.org/2000/svg" xmlns:xlink="http://www.w3.org/1999/xlink" viewBox="0 0 42.52 46.03">
  <defs>
    <style>
      .cls-1 {
        clip-path: url(#clippath);
      }

      .cls-2 {
        fill: none;
      }

      .cls-2, .cls-3, .cls-4, .cls-5, .cls-6, .cls-7, .cls-8, .cls-9, .cls-10, .cls-11, .cls-12, .cls-13, .cls-14 {
        stroke-width: 0px;
      }

      .cls-3 {
        fill: #edc38f;
      }

      .cls-4 {
        fill: #ffebca;
      }

      .cls-5 {
        fill: #957db9;
      }

      .cls-6 {
        fill: #f89d6b;
      }

      .cls-15 {
        clip-path: url(#clippath-1);
      }

      .cls-16 {
        clip-path: url(#clippath-4);
      }

      .cls-17 {
        clip-path: url(#clippath-3);
      }

      .cls-18 {
        clip-path: url(#clippath-2);
      }

      .cls-19 {
        clip-path: url(#clippath-6);
      }

      .cls-20 {
        clip-path: url(#clippath-5);
      }

      .cls-7 {
        fill: #6d3d1f;
      }

      .cls-8 {
        fill: #f47836;
      }

      .cls-9 {
        fill: #7ebce7;
      }

      .cls-10 {
        fill: #add1ef;
      }

      .cls-11 {
        fill: #3f2f2f;
      }

      .cls-12 {
        fill: #f48893;
      }

      .cls-13 {
        fill: #efbd88;
      }

      .cls-14 {
        fill: #fad099;
      }
    </style>
    <clipPath id="clippath">
      <rect class="cls-2" y="-2.37" width="44.93" height="48.4"/>
    </clipPath>
    <clipPath id="clippath-1">
      <rect class="cls-2" width="42.52" height="46.03"/>
    </clipPath>
    <clipPath id="clippath-2">
      <rect class="cls-2" y="-2.37" width="44.93" height="48.4"/>
    </clipPath>
    <clipPath id="clippath-3">
      <rect class="cls-2" width="42.52" height="46.03"/>
    </clipPath>
    <clipPath id="clippath-4">
      <rect class="cls-2" y="-2.37" width="44.93" height="48.4"/>
    </clipPath>
    <clipPath id="clippath-5">
      <rect class="cls-2" width="42.52" height="46.03"/>
    </clipPath>
    <clipPath id="clippath-6">
      <rect class="cls-2" y="-2.37" width="44.93" height="48.4"/>
    </clipPath>
  </defs>
  <g class="cls-1">
    <path class="cls-8" d="M29.27,16.3v.76c0,.31-.26.57-.58.57h-14.88c-.32,0-.57-.26-.57-.57v-.76c0-2.95,2.39-5.35,5.35-5.35h5.33c.29,0,.57.02.85.07,2.54.4,4.5,2.62,4.5,5.28"/>
    <path class="cls-8" d="M27.17,16.42c0,.2-.16.36-.36.36h-2.7c-.2,0-.36-.16-.36-.36s.16-.36.36-.36h2.7c.2,0,.36.16.36.36"/>
    <path class="cls-8" d="M24.38,11.58v.02c0,.81-.65,1.46-1.46,1.46h-3.49c-.81,0-1.47-.65-1.47-1.46v-.02c0-.23.05-.45.14-.63h5.31c.29,0,.57.02.85.07.08.17.11.36.11.56"/>
    <rect class="cls-3" x="19.11" y="9.55" width="4.1" height="2.44"/>
    <path class="cls-3" d="M23.21,12.07c0,.29-.92.52-2.05.52s-2.05-.23-2.05-.52.92-.52,2.05-.52,2.05.23,2.05.52"/>
  </g>
  <g class="cls-15">
    <path class="cls-14" d="M24.86,6.28c0,2.74-1.62,4.96-3.61,4.96s-3.6-2.22-3.6-4.96c0-.58.07-1.13.2-1.64.49-1.93,1.83-3.32,3.39-3.32s2.91,1.38,3.4,3.32c.14.52.21,1.07.21,1.64"/>
    <path class="cls-7" d="M19.33,2.22s1.26,1.89,3.99,2.39c2.03.38.82,2.28,1.23,4.01,0,0,1.26-1.6.98-4.16-.28-2.56-1.59-4.38-4.26-4.13,0,0-.88-.6-2.29-.17-1.4.42-3.75,5.82-.83,8.71,0,0-1.59-4.51,1.18-6.64"/>
  </g>
  <g class="cls-18">
    <path class="cls-14" d="M24.16,7.35c0,.54.24.98.55.98s.55-.44.55-.98-.24-.98-.55-.98-.55.44-.55.98"/>
    <path class="cls-14" d="M17.28,7.35c0,.54.24.98.55.98s.55-.44.55-.98-.24-.98-.55-.98-.55.44-.55.98"/>
    <path class="cls-7" d="M24.07,4.64c-.03-.12.14.16.95,1.69l-.12.11c-.16.02-.2.17-.67.91,0,0,.22-1.21-.16-2.72"/>
    <path class="cls-11" d="M33.8,17.7s-.3.3-1.3.56c-.24.06-.82.11-1.56.15-.31.01-.65.03-1.01.04-.43.01-.89.02-1.35.03-.45,0-.9,0-1.33,0-.34,0-.66-.01-.96-.02-.84-.04-1.51-.1-1.78-.19-1.01-.34-1.11-.77-1.11-.77.72-.41,1.11-3.97,1.11-3.97l.08-.58c.09-.69.26-1.35.55-1.92.55-1.06,1.52-1.81,3.37-1.81h.08c1.76.02,2.75.85,3.29,1.94l.73,2.37s.36,3.62,1.2,4.18"/>
    <path class="cls-5" d="M35.08,22.99v1.38c0,.76-.62,1.38-1.38,1.38h-10.21c-.76,0-1.38-.62-1.38-1.38v-1.38c0-1.52,1.23-2.76,2.76-2.76h7.45c1.52,0,2.76,1.23,2.76,2.76"/>
    <path class="cls-3" d="M30.07,18.79v2.15l-.1.29c-.09.12-.23.19-.39.19h-1.96c-.16,0-.3-.08-.39-.19l-.1-.29v-2.15l.12-.32c.09-.1.23-.17.37-.17h1.96c.14,0,.26.06.35.15l.14.34Z"/>
    <path class="cls-3" d="M31.59,20.36v-.13h-5.98v.13c0,1.85,1.13,3.38,2.61,3.6l.37.95.37-.95c1.48-.22,2.62-1.75,2.62-3.61"/>
    <path class="cls-14" d="M32.21,15.01c0,1.36-.49,2.58-1.27,3.41-.26.28-.55.51-.87.68-.45.25-.95.39-1.47.39h-.02c-.52,0-1.01-.14-1.45-.39-.31-.17-.59-.38-.84-.65-.8-.82-1.3-2.06-1.3-3.44,0-.52.07-1.02.21-1.48.49-1.74,1.82-2.99,3.39-3h.02c1.58,0,2.92,1.25,3.42,3,.13.47.2.96.2,1.48"/>
    <path class="cls-11" d="M32.6,13.52h-8.01l.05-.4.03-.18c.1-.69.26-1.35.55-1.92.54-1.05,1.51-1.79,3.31-1.81h.06c1.81,0,2.82.83,3.37,1.94l.02.05c.35.72.53,1.54.61,2.33"/>
    <path class="cls-11" d="M13.16,9.14c-2.6,0-4.7,2.47-4.7,5.52v5.93h9.4v-5.93c0-3.05-2.1-5.52-4.7-5.52"/>
    <path class="cls-12" d="M19.73,23.07v1.38c0,.76-.62,1.38-1.38,1.38h-10.21c-.76,0-1.38-.62-1.38-1.38v-1.38c0-1.28.88-2.36,2.06-2.67.22-.06.45-.09.69-.09h7.45c.35,0,.67.07.98.18,1.04.39,1.78,1.4,1.78,2.58"/>
    <path class="cls-3" d="M14.5,18.92v2.14l-.1.3c-.09.12-.23.19-.39.19h-1.96c-.16,0-.3-.08-.39-.19l-.1-.3v-2.14c0-.27.22-.49.49-.49h1.96c.27,0,.49.22.49.49"/>
    <path class="cls-3" d="M10.04,20.44c0,2.01,1.34,3.63,3,3.63s2.99-1.63,2.99-3.63v-.13h-5.98v.13Z"/>
    <path class="cls-14" d="M9.51,15.02c0,2.49,1.63,4.52,3.65,4.52s3.64-2.03,3.64-4.52c0-.52-.07-1.03-.21-1.5-.49-1.76-1.85-3.02-3.43-3.02s-2.95,1.26-3.44,3.02c-.14.47-.21.97-.21,1.5"/>
    <path class="cls-11" d="M9.62,14.13c.54-.04.9-.31,1.14-.61.29-.36.38-.74.38-.74.48.41.88.63,1.19.74.51.19.8.12.8.12l-.11-.12c-.43-.51-.38-1.54-.38-1.54.13.7.5,1.2,1,1.54,1.38,1,3.66.81,3.66.81,0,0-.13-.34-.3-.81-.4-1.06-1.05-2.82-1.12-3.02-.09-.29-2.16-1.31-4.34-.45-1.58.61-1.88,2.49-1.92,3.47-.02.37,0,.61,0,.61"/>
  </g>
  <g class="cls-17">
    <path class="cls-13" d="M40.34,19.13c-.1.27-.18.53-.27.8-.72,2.22-1.16,4.44-1.45,5.62-.33,1.32-.54,3.26-.98,4.12-.45.86-4.7-1.66-5.14-.8.26-.19.48-.37.69-.53,1.17-.9,1.66-1.4,2-2.07.41-.81,1.63-4.18,1.81-4.94.18-.76,1.15-2.61,1.51-3.02.33-.39,1.25-.91,1.73-.71.32.12.45.55.1,1.53"/>
    <path class="cls-14" d="M42.19,19.02c-.13.27-.25.53-.37.8-1.01,2.23-1.73,4.5-2.17,5.69-.5,1.34-.94,3.34-1.51,4.19-.57.85-5.7,3.93-6.33,4.5-.63.57-2.35,1.37-2.35,5.32,0,1.06.52,3.51.52,3.51h-7.27c.47-1.04.63-2.21.49-4.1-.05-.67-.42-3.65-.49-4.21-.21-1.6,1.18-3.1,2.38-3.81,1.2-.7,4.38-3.32,5.08-4.38.71-1.06,2.91-4.24,3.2-4.8.52-.99,2.12-1.16,1.77.82-.35,1.98-1.69,4.88-2.26,5.72.29-.17.54-.33.78-.47,1.33-.81,1.89-1.27,2.33-1.93.53-.8,2.19-4.17,2.47-4.94.28-.77,1.5-2.59,1.93-2.98.4-.36,1.41-.8,1.89-.54.32.16.4.63-.07,1.61"/>
    <path class="cls-3" d="M32.94,28.14c-.32.33-.46.76-.61,1.18l-.41,1.3-.12.33-.19.32c-.14.19-.3.36-.47.52-.17.16-.34.31-.51.46-.17.15-.35.29-.5.46.21-.41.56-.72.84-1.07.14-.17.29-.34.4-.53l.15-.27.11-.32c.15-.43.28-.86.47-1.28.19-.41.4-.86.81-1.11"/>
    <path class="cls-4" d="M42.19,19.02c-.13.27-.25.53-.37.8-.17-.19-.36-.47-.36-.67,0-.46.41-1.17.71-1.6.32.16.59.3.03,1.46"/>
  </g>
  <g class="cls-16">
    <path class="cls-4" d="M33.78,21.22c-.35.5-.72,1.09-.58,1.43.14.33.78.48.95.4.18-.07.79-1.13.85-1.41.05-.28-.91-.87-1.22-.42"/>
    <rect class="cls-10" x="22.05" y="37.69" width="8.35" height="1.7"/>
    <rect class="cls-9" x="21.6" y="38.83" width="9.26" height="7.21"/>
    <polygon class="cls-10" points="22.65 38.83 22.46 43.43 22.27 38.83 22.65 38.83"/>
    <path class="cls-8" d="M23.61,41.17c-.36,0-.65-.29-.65-.65s.29-.65.65-.65.65.29.65.65-.29.65-.65.65"/>
    <polygon class="cls-6" points="24.09 40.42 23.79 40.31 23.7 40.02 23.99 40.12 24.09 40.42"/>
  </g>
  <g class="cls-20">
    <path class="cls-13" d="M2.18,19.13c.09.27.18.53.27.8.72,2.22,1.16,4.44,1.45,5.62.33,1.32.54,3.26.98,4.12.45.86,4.7-1.66,5.14-.8-.26-.19-.48-.37-.69-.53-1.17-.9-1.66-1.4-2-2.07-.41-.81-1.63-4.18-1.81-4.94-.18-.76-1.15-2.61-1.51-3.02-.33-.39-1.25-.91-1.73-.71-.32.12-.45.55-.1,1.53"/>
    <path class="cls-14" d="M.33,19.02c.13.27.25.53.37.8,1.01,2.23,1.73,4.5,2.17,5.69.5,1.34.94,3.34,1.51,4.19.57.85,5.7,3.93,6.33,4.5.63.57,2.35,1.37,2.35,5.32,0,1.06-.52,3.51-.52,3.51h7.27c-.47-1.04-.63-2.21-.49-4.1.05-.67.42-3.65.49-4.21.21-1.6-1.18-3.1-2.37-3.81-1.2-.7-4.38-3.32-5.08-4.38-.7-1.06-2.91-4.24-3.2-4.8-.52-.99-2.12-1.16-1.77.82.36,1.98,1.7,4.88,2.26,5.72-.29-.17-.54-.33-.78-.47-1.33-.81-1.89-1.27-2.33-1.93-.52-.8-2.19-4.17-2.47-4.94-.28-.77-1.5-2.59-1.93-2.98-.4-.36-1.41-.8-1.89-.54-.32.16-.4.63.07,1.61"/>
    <path class="cls-3" d="M9.58,28.14c.32.33.46.76.61,1.18l.41,1.3.12.33.19.32c.14.19.3.36.47.52.17.16.34.31.51.46.17.15.35.29.5.46-.21-.41-.56-.72-.84-1.07-.14-.17-.29-.34-.4-.53l-.15-.27-.11-.32c-.15-.43-.28-.86-.47-1.28-.19-.41-.4-.86-.81-1.11"/>
    <path class="cls-4" d="M.33,19.02c.13.27.25.53.37.8.17-.19.36-.47.36-.67,0-.46-.41-1.17-.71-1.6-.32.16-.59.3-.03,1.46"/>
  </g>
  <g class="cls-19">
    <path class="cls-4" d="M8.74,21.22c.35.5.72,1.09.58,1.43-.14.33-.78.48-.95.4-.18-.07-.79-1.13-.85-1.41-.05-.28.91-.87,1.22-.42"/>
    <rect class="cls-10" x="12.11" y="37.69" width="8.35" height="1.7"/>
    <rect class="cls-9" x="11.66" y="38.83" width="9.26" height="7.21"/>
    <polygon class="cls-10" points="19.87 38.83 20.06 43.43 20.25 38.83 19.87 38.83"/>
    <path class="cls-8" d="M18.91,41.17c.36,0,.65-.29.65-.65s-.29-.65-.65-.65-.65.29-.65.65.29.65.65.65"/>
    <polygon class="cls-6" points="18.43 40.42 18.53 40.12 18.82 40.02 18.73 40.31 18.43 40.42"/>
  </g>
</svg>